SplineFontDB: 3.0
FontName: Oxygen-Light
FullName: Oxygen Light
FamilyName: Oxygen Light Light
Weight: Light
Copyright: 2012 vernon adams
Version: webfont 0.2.2
ItalicAngle: 0
UnderlinePosition: 0
UnderlineWidth: 0
Ascent: 1638
Descent: 410
sfntRevision: 0x00003333
LayerCount: 2
Layer: 0 1 "Back"  1
Layer: 1 1 "Fore"  0
NeedsXUIDChange: 1
XUID: [1021 14 500265001 1042009]
FSType: 0
OS2Version: 1
OS2_WeightWidthSlopeOnly: 0
OS2_UseTypoMetrics: 1
CreationTime: 1336048760
ModificationTime: 1336135628
PfmFamily: 17
TTFWeight: 300
TTFWidth: 5
LineGap: 0
VLineGap: 0
Panose: 2 0 3 3 0 0 0 0 0 0
OS2TypoAscent: 263
OS2TypoAOffset: 1
OS2TypoDescent: -73
OS2TypoDOffset: 1
OS2TypoLinegap: 0
OS2WinAscent: -120
OS2WinAOffset: 1
OS2WinDescent: -188
OS2WinDOffset: 1
HheadAscent: -120
HheadAOffset: 1
HheadDescent: 188
HheadDOffset: 1
OS2SubXSize: 0
OS2SubYSize: 0
OS2SubXOff: 0
OS2SubYOff: 0
OS2SupXSize: 0
OS2SupYSize: 0
OS2SupXOff: 0
OS2SupYOff: 0
OS2StrikeYSize: 0
OS2StrikeYPos: 0
OS2Vendor: 'newt'
OS2CodePages: 00000001.00000000
OS2UnicodeRanges: 8000006f.40002049.00000000.00000000
Lookup: 4 0 1 "'liga' Standard Ligatures lookup 0"  {"'liga' Standard Ligatures lookup 0 subtable"  } ['liga' ('DFLT' <'dflt' > 'cyrl' <'dflt' > 'grek' <'dflt' > 'latn' <'dflt' > ) ]
Lookup: 258 0 0 "'kern' Horizontal Kerning in Latin lookup 0"  {"'kern' Horizontal Kerning in Latin lookup 0 per glyph data 0"  "'kern' Horizontal Kerning in Latin lookup 0 kerning class 1"  } ['kern' ('DFLT' <'dflt' > 'latn' <'dflt' > ) ]
MarkAttachClasses: 1
DEI: 91125
KernClass2: 26 21 "'kern' Horizontal Kerning in Latin lookup 0 kerning class 1" 
 81 A Agrave Aacute Acircumflex Atilde Adieresis Aring Amacron Abreve Aogonek uni0202
 1 B
 75 D O Q Eth Ograve Oacute Ocircumflex Otilde Odieresis Oslash uni020C uni020E
 1 F
 1 K
 1 L
 1 P
 44 R Racute Rcommaaccent Rcaron uni0210 uni0212
 22 T uni021A Tcommaaccent
 45 U Ugrave Uacute Ucircumflex Udieresis uni0216
 1 V
 1 W
 18 Y Yacute Ydieresis

StartChar: .notdef
Encoding: 65536 -1 0
Width: 748
Flags: HW
LayerCount: 2
Fore
SplineSet
136 68 m 1,0,-1
 544 68 l 1,1,-1
 544 1297 l 1,2,-1
 136 1297 l 1,3,-1
 136 68 l 1,0,-1
68 0 m 1,4,-1
 68 1365 l 1,5,-1
 612 1365 l 1,6,-1
 612 0 l 1,7,-1
 68 0 l 1,4,-1
EndSplineSet
EndChar

StartChar: exclam
Encoding: 33 33 4
Width: 650
GlyphClass: 2
Flags: HW
LayerCount: 2
Fore
SplineSet
418 27.5 m 128,-1,1
 387 -8 387 -8 325.5 -8 c 128,-1,2
 264 -8 264 -8 233 27.5 c 128,-1,3
 202 63 202 63 202 110.5 c 128,-1,4
 202 158 202 158 233 193 c 128,-1,5
 264 228 264 228 325.5 228 c 128,-1,6
 387 228 387 228 418 193 c 128,-1,7
 449 158 449 158 449 110.5 c 128,-1,0
 449 63 449 63 418 27.5 c 128,-1,1
292 419 m 1,8,-1
 233 1425 l 1,9,-1
 233 1514 l 1,10,-1
 410 1514 l 1,11,-1
 410 1425 l 1,12,-1
 358 419 l 1,13,-1
 292 419 l 1,8,-1
EndSplineSet
EndChar

StartChar: quotedbl
Encoding: 34 34 5
Width: 676
GlyphClass: 2
Flags: HW
LayerCount: 2
Fore
SplineSet
427 1034 m 1,0,-1
 412 1514 l 1,1,-1
 530 1514 l 1,2,-1
 498 1034 l 1,3,-1
 427 1034 l 1,0,-1
168 1034 m 1,4,-1
 153 1514 l 1,5,-1
 271 1514 l 1,6,-1
 239 1034 l 1,7,-1
 168 1034 l 1,4,-1
EndSplineSet
EndChar

StartChar: numbersign
Encoding: 35 35 6
Width: 1108
GlyphClass: 2
Flags: HW
LayerCount: 2
Fore
SplineSet
374 505 m 1,0,-1
 644 505 l 1,1,-1
 721 952 l 1,2,-1
 452 952 l 1,3,-1
 374 505 l 1,0,-1
180 -28 m 1,4,-1
 254 414 l 1,5,-1
 109 414 l 1,6,-1
 119 505 l 1,7,-1
 270 505 l 1,8,-1
 348 951 l 1,9,-1
 185 951 l 1,10,-1
 195 1041 l 1,11,-1
 363 1041 l 1,12,-1
 437 1464 l 1,13,-1
 541 1464 l 1,14,-1
 467 1041 l 1,15,-1
 737 1041 l 1,16,-1
 811 1464 l 1,17,-1
 915 1464 l 1,18,-1
 841 1041 l 1,19,-1
 984 1041 l 1,20,-1
 969 952 l 1,21,-1
 826 952 l 1,22,-1
 747 505 l 1,23,-1
 902 505 l 1,24,-1
 892 414 l 1,25,-1
 732 414 l 1,26,-1
 655 -28 l 1,27,-1
 550 -28 l 1,28,-1
 628 414 l 1,29,-1
 358 414 l 1,30,-1
 281 -28 l 1,31,-1
 180 -28 l 1,4,-1
EndSplineSet
EndChar

StartChar: dollar
Encoding: 36 36 7
Width: 1247
GlyphClass: 2
Flags: HW
LayerCount: 2
Fore
SplineSet
679 720 m 1,0,-1
 679 82 l 1,1,2
 846 85 846 85 935.5 173.5 c 128,-1,3
 1025 262 1025 262 1025 422 c 0,4,5
 1025 536 1025 536 973 602 c 0,6,7
 917 673 917 673 739 708 c 2,8,-1
 679 720 l 1,0,-1
592 856 m 1,9,-1
 592 1406 l 1,10,11
 410 1396 410 1396 319 1325.5 c 128,-1,12
 228 1255 228 1255 228 1114 c 0,13,14
 228 1019 228 1019 295 961.5 c 128,-1,15
 362 904 362 904 493 876 c 1,16,-1
 592 856 l 1,9,-1
97 1127 m 0,17,18
 97 1491 97 1491 592 1513 c 1,19,-1
 592 1741 l 1,20,-1
 679 1741 l 1,21,-1
 679 1514 l 1,22,23
 799 1510 799 1510 912 1480 c 128,-1,24
 1025 1450 1025 1450 1098 1413 c 1,25,-1
 1065 1315 l 1,26,27
 1010 1345 1010 1345 903 1374 c 128,-1,28
 796 1403 796 1403 679 1407 c 1,29,-1
 679 838 l 1,30,-1
 761 821 l 2,31,32
 956 780 956 780 1054 696 c 0,33,34
 1160 605 1160 605 1159 419 c 0,35,36
 1160 282 1160 282 1098 182 c 0,37,38
 976 -15 976 -15 679 -23 c 1,39,-1
 679 -213 l 1,40,-1
 592 -213 l 1,41,-1
 592 -22 l 1,42,43
 426 -14 426 -14 298.5 24 c 128,-1,44
 171 62 171 62 99 105 c 1,45,-1
 147 196 l 1,46,47
 332 96 332 96 592 84 c 1,48,-1
 592 737 l 1,49,-1
 499 756 l 1,50,51
 298 796 298 796 197.5 882 c 128,-1,52
 97 968 97 968 97 1127 c 0,17,18
EndSplineSet
EndChar

StartChar: ampersand
Encoding: 38 38 8
Width: 1496
GlyphClass: 2
Flags: HW
LayerCount: 2
Fore
SplineSet
601 891 m 1,0,1
 788 986 788 986 842 1042 c 0,2,3
 886 1089 886 1089 896 1114 c 0,4,5
 919 1169 919 1169 919 1217 c 0,6,7
 919 1311 919 1311 853 1362.5 c 128,-1,8
 787 1414 787 1414 665 1414 c 128,-1,9
 543 1414 543 1414 478 1360 c 128,-1,10
 413 1306 413 1306 413 1222.5 c 128,-1,11
 413 1139 413 1139 471 1047.5 c 128,-1,12
 529 956 529 956 601 891 c 1,0,1
626 74 m 0,13,14
 758 74 758 74 886 113.5 c 128,-1,15
 1014 153 1014 153 1089 219 c 1,16,-1
 564 773 l 1,17,18
 262 608 262 608 262 376 c 0,19,20
 262 247 262 247 345 167 c 0,21,22
 442 74 442 74 626 74 c 0,13,14
1161 147 m 1,23,24
 937 -22 937 -22 638 -22 c 0,25,26
 260 -22 260 -22 168 224 c 0,27,28
 142 294 142 294 141.5 365 c 128,-1,29
 141 436 141 436 151.5 485.5 c 128,-1,30
 162 535 162 535 183.5 577.5 c 128,-1,31
 205 620 205 620 234 657 c 128,-1,32
 263 694 263 694 303 728 c 0,33,34
 377 791 377 791 487 849 c 1,35,36
 383 976 383 976 369 1000.5 c 128,-1,37
 355 1025 355 1025 340 1053 c 0,38,39
 324 1081 324 1081 318 1104 c 0,40,41
 302 1162 302 1162 302 1213 c 0,42,43
 302 1346 302 1346 400.5 1430 c 128,-1,44
 499 1514 499 1514 664.5 1514 c 128,-1,45
 830 1514 830 1514 928.5 1432 c 128,-1,46
 1027 1350 1027 1350 1027 1205 c 0,47,48
 1027 989 1027 989 659 821 c 1,49,-1
 1168 288 l 1,50,51
 1238 363 1238 363 1284 471 c 1,52,-1
 1356 414 l 1,53,54
 1314 315 1314 315 1235 216 c 1,55,-1
 1390 62 l 1,56,-1
 1315 -6 l 1,57,-1
 1161 147 l 1,23,24
EndSplineSet
EndChar

StartChar: quotesingle
Encoding: 39 39 9
Width: 415
GlyphClass: 2
Flags: HW
LayerCount: 2
Fore
SplineSet
152 1020 m 1,0,-1
 137 1514 l 1,1,-1
 267 1514 l 1,2,-1
 247 1020 l 1,3,-1
 152 1020 l 1,0,-1
EndSplineSet
EndChar

StartChar: parenleft
Encoding: 40 40 10
Width: 590
GlyphClass: 2
Flags: HW
LayerCount: 2
Fore
SplineSet
379 -239 m 1,0,1
 252 -63 252 -63 180 166 c 128,-1,2
 108 395 108 395 108 627 c 0,3,4
 108 1111 108 1111 376 1514 c 1,5,-1
 495 1514 l 1,6,7
 355 1277 355 1277 298.5 1070 c 128,-1,8
 242 863 242 863 242 633 c 0,9,10
 242 182 242 182 495 -239 c 1,11,-1
 379 -239 l 1,0,1
EndSplineSet
EndChar

StartChar: parenright
Encoding: 41 41 11
Width: 590
GlyphClass: 2
Flags: HW
LayerCount: 2
Fore
SplineSet
95 -239 m 1,0,1
 348 183 348 183 348 633 c 0,2,3
 348 862 348 862 291 1069.5 c 128,-1,4
 234 1277 234 1277 94 1514 c 1,5,-1
 212 1514 l 1,6,7
 482 1104 482 1104 482 627 c 0,8,9
 482 394 482 394 409.5 166.5 c 128,-1,10
 337 -61 337 -61 210 -239 c 1,11,-1
 95 -239 l 1,0,1
EndSplineSet
EndChar

StartChar: asterisk
Encoding: 42 42 12
Width: 1106
GlyphClass: 2
Flags: HW
LayerCount: 2
Fore
SplineSet
352 573 m 1,0,-1
 218 655 l 1,1,-1
 468 1005 l 1,2,-1
 99 1092 l 1,3,-1
 143 1240 l 1,4,-1
 506 1077 l 1,5,-1
 468 1514 l 1,6,-1
 635 1514 l 1,7,-1
 598 1077 l 1,8,-1
 962 1240 l 1,9,-1
 1007 1093 l 1,10,-1
 633 1005 l 1,11,12
 652 976 652 976 738.5 862.5 c 128,-1,13
 825 749 825 749 888 655 c 1,14,15
 853 630 853 630 821 614 c 128,-1,16
 789 598 789 598 756 574 c 1,17,-1
 548 961 l 1,18,-1
 352 573 l 1,0,-1
EndSplineSet
EndChar

StartChar: plus
Encoding: 43 43 13
Width: 1101
GlyphClass: 2
Flags: HW
LayerCount: 2
Fore
SplineSet
500 157 m 1,0,-1
 500 600 l 1,1,-1
 108 600 l 1,2,-1
 108 700 l 1,3,-1
 502 700 l 1,4,-1
 502 1135 l 1,5,-1
 610 1135 l 1,6,-1
 610 700 l 1,7,-1
 992 700 l 1,8,-1
 992 600 l 1,9,-1
 610 600 l 1,10,-1
 610 157 l 1,11,-1
 500 157 l 1,0,-1
EndSplineSet
EndChar

StartChar: comma
Encoding: 44 44 14
Width: 504
GlyphClass: 2
Flags: HW
LayerCount: 2
Fore
SplineSet
130 -275 m 1,0,-1
 210 235 l 1,1,-1
 339 235 l 1,2,-1
 339 194 l 1,3,4
 298 16 298 16 202 -275 c 1,5,-1
 130 -275 l 1,0,-1
EndSplineSet
EndChar

StartChar: hyphen
Encoding: 45 45 15
Width: 670
GlyphClass: 2
Flags: HW
LayerCount: 2
Fore
SplineSet
93 531 m 1,0,-1
 93 641 l 1,1,-1
 577 641 l 1,2,-1
 577 531 l 1,3,-1
 93 531 l 1,0,-1
EndSplineSet
EndChar

StartChar: period
Encoding: 46 46 16
Width: 517
GlyphClass: 2
Flags: HW
LayerCount: 2
Fore
SplineSet
372 23 m 128,-1,1
 345 -8 345 -8 291 -8 c 128,-1,2
 237 -8 237 -8 210 23 c 128,-1,3
 183 54 183 54 183 95.5 c 128,-1,4
 183 137 183 137 210 168 c 128,-1,5
 237 199 237 199 291 199 c 128,-1,6
 345 199 345 199 372 168 c 128,-1,7
 399 137 399 137 399 95.5 c 128,-1,0
 399 54 399 54 372 23 c 128,-1,1
EndSplineSet
EndChar

StartChar: slash
Encoding: 47 47 17
Width: 953
GlyphClass: 2
Flags: HW
LayerCount: 2
Fore
SplineSet
49 -174 m 1,0,-1
 750 1514 l 1,1,-1
 863 1514 l 1,2,-1
 161 -174 l 1,3,-1
 49 -174 l 1,0,-1
EndSplineSet
EndChar

StartChar: zero
Encoding: 48 48 18
Width: 1216
GlyphClass: 2
Flags: HW
LayerCount: 2
Fore
SplineSet
609 -24 m 1,0,1
 483 -24 483 -24 387 33 c 0,2,3
 292 90 292 90 232 196 c 0,4,5
 114 406 114 406 113.5 772 c 128,-1,6
 113 1138 113 1138 240.5 1343 c 128,-1,7
 368 1548 368 1548 609 1548 c 128,-1,8
 850 1548 850 1548 975.5 1343.5 c 128,-1,9
 1101 1139 1101 1139 1101 763 c 0,10,11
 1101 406 1101 406 984 196 c 0,12,13
 861 -24 861 -24 609 -24 c 1,0,1
362 274 m 0,14,15
 456 92 456 92 608.5 91.5 c 128,-1,16
 761 91 761 91 855 274.5 c 128,-1,17
 949 458 949 458 949 765 c 128,-1,18
 949 1072 949 1072 855 1252.5 c 128,-1,19
 761 1433 761 1433 608.5 1433 c 128,-1,20
 456 1433 456 1433 362 1252 c 0,21,22
 268 1072 268 1072 268 767 c 0,23,24
 268 457 268 457 362 274 c 0,14,15
EndSplineSet
EndChar

StartChar: one
Encoding: 49 49 19
Width: 599
GlyphClass: 2
Flags: HW
LayerCount: 2
Fore
SplineSet
274 0 m 1,0,-1
 274 1356 l 1,1,2
 189 1295 189 1295 34 1241 c 1,3,-1
 34 1349 l 1,4,5
 244 1446 244 1446 297 1488 c 1,6,-1
 402 1488 l 1,7,-1
 402 0 l 1,8,-1
 274 0 l 1,0,-1
EndSplineSet
EndChar

StartChar: two
Encoding: 50 50 20
Width: 1144
GlyphClass: 2
Flags: HW
LayerCount: 2
Fore
SplineSet
132 0 m 1,0,-1
 102 127 l 1,1,-1
 621 731 l 1,2,3
 723 852 723 852 773 941.5 c 128,-1,4
 823 1031 823 1031 823 1116 c 0,5,6
 823 1258 823 1258 756 1333.5 c 128,-1,7
 689 1409 689 1409 575 1409 c 0,8,9
 338 1409 338 1409 220 1297 c 1,10,-1
 173 1394 l 1,11,12
 298 1514 298 1514 561 1514 c 0,13,14
 752 1514 752 1514 862.5 1409 c 128,-1,15
 973 1304 973 1304 973 1133 c 0,16,17
 973 1018 973 1018 914.5 906.5 c 128,-1,18
 856 795 856 795 722 640 c 2,19,-1
 272 123 l 1,20,-1
 985 123 l 1,21,-1
 977 0 l 1,22,-1
 132 0 l 1,0,-1
EndSplineSet
EndChar

StartChar: three
Encoding: 51 51 21
Width: 1115
GlyphClass: 2
Flags: HW
LayerCount: 2
Fore
SplineSet
532 -23 m 0,0,1
 401 -23 401 -23 298 13 c 128,-1,2
 195 49 195 49 156 86 c 1,3,-1
 203 189 l 1,4,5
 339 83 339 83 509 83 c 128,-1,6
 679 83 679 83 772.5 166.5 c 128,-1,7
 866 250 866 250 866 404 c 0,8,9
 866 625 866 625 684 699 c 0,10,11
 587 739 587 739 424 745 c 0,12,13
 419 746 419 746 395 745.5 c 128,-1,14
 371 745 371 745 366 745 c 1,15,-1
 366 857 l 1,16,-1
 410 857 l 1,17,18
 607 864 607 864 695 914 c 0,19,20
 783 964 783 964 810 1042 c 0,21,22
 826 1088 826 1088 826 1147 c 0,23,24
 826 1409 826 1409 534 1409 c 0,25,26
 434 1409 434 1409 346 1380.5 c 128,-1,27
 258 1352 258 1352 203 1302 c 1,28,-1
 157 1406 l 1,29,30
 285 1516 285 1516 569 1516 c 0,31,32
 716 1516 716 1516 828 1432 c 0,33,34
 882 1391 882 1391 915 1322 c 128,-1,35
 948 1253 948 1253 948 1166 c 0,36,37
 948 883 948 883 687 804 c 1,38,39
 990 726 990 726 995 410 c 0,40,41
 995 406 995 406 995 401 c 0,42,43
 996 214 996 214 870 97 c 0,44,45
 742 -23 742 -23 532 -23 c 0,0,1
EndSplineSet
EndChar

StartChar: four
Encoding: 52 52 22
Width: 1192
GlyphClass: 2
Flags: HW
LayerCount: 2
Fore
SplineSet
253 512 m 1,0,-1
 798 512 l 1,1,-1
 798 1314 l 1,2,-1
 253 512 l 1,0,-1
798 0 m 1,3,-1
 798 402 l 1,4,-1
 116 402 l 1,5,-1
 116 538 l 1,6,-1
 802 1521 l 1,7,-1
 922 1521 l 1,8,-1
 922 512 l 1,9,-1
 1108 512 l 1,10,-1
 1093 402 l 1,11,-1
 922 402 l 1,12,-1
 922 0 l 1,13,-1
 798 0 l 1,3,-1
EndSplineSet
EndChar

StartChar: five
Encoding: 53 53 23
Width: 1195
GlyphClass: 2
Flags: HW
LayerCount: 2
Fore
SplineSet
930.5 115 m 128,-1,1
 794 -23 794 -23 545 -23 c 128,-1,2
 296 -23 296 -23 129 111 c 1,3,-1
 174 207 l 1,4,5
 330 82 330 82 569 82 c 0,6,7
 732 82 732 82 830 191.5 c 128,-1,8
 928 301 928 301 928 463.5 c 128,-1,9
 928 626 928 626 843.5 724.5 c 128,-1,10
 759 823 759 823 634 823 c 0,11,12
 543 823 543 823 479.5 798 c 128,-1,13
 416 773 416 773 335 711 c 1,14,-1
 210 720 l 1,15,-1
 244 1488 l 1,16,-1
 1005 1488 l 1,17,-1
 992 1377 l 1,18,-1
 353 1377 l 1,19,-1
 323 832 l 1,20,21
 450 928 450 928 598 930 c 0,22,23
 604 930 604 930 610 931 c 0,24,25
 751 930 751 930 853 870 c 0,26,27
 959 808 959 808 1013 706 c 128,-1,28
 1067 604 1067 604 1067 483 c 0,29,0
 1067 253 1067 253 930.5 115 c 128,-1,1
EndSplineSet
EndChar

StartChar: six
Encoding: 54 54 24
Width: 1196
GlyphClass: 2
Flags: HW
LayerCount: 2
Fore
SplineSet
602 88 m 0,0,1
 758 88 758 88 856.5 194.5 c 128,-1,2
 955 301 955 301 955 443 c 0,3,4
 954 656 954 656 794 760 c 0,5,6
 714 812 714 812 617.5 812.5 c 128,-1,7
 521 813 521 813 452.5 783.5 c 128,-1,8
 384 754 384 754 341 704 c 0,9,10
 253 601 253 601 253 448 c 0,11,12
 254 309 254 309 346 201 c 0,13,14
 390 150 390 150 456.5 119 c 128,-1,15
 523 88 523 88 602 88 c 0,0,1
387 849 m 1,16,17
 502 916 502 916 646 916 c 0,18,19
 821 916 821 916 952 781 c 0,20,21
 1012 719 1012 719 1048 630.5 c 128,-1,22
 1084 542 1084 542 1084 444 c 0,23,24
 1084 251 1084 251 948 114 c 128,-1,25
 812 -23 812 -23 604 -23 c 0,26,27
 493 -23 493 -23 400 18.5 c 128,-1,28
 307 60 307 60 247 130 c 0,29,30
 121 276 121 276 121 473 c 0,31,32
 122 607 122 607 166 696 c 0,33,34
 213 789 213 789 256 851 c 0,35,36
 329 954 329 954 423 1081 c 1,37,38
 508 1188 508 1188 712 1418 c 1,39,-1
 775 1488 l 1,40,-1
 912 1488 l 1,41,-1
 387 849 l 1,16,17
EndSplineSet
EndChar

StartChar: seven
Encoding: 55 55 25
Width: 1059
GlyphClass: 2
Flags: HW
LayerCount: 2
Fore
SplineSet
276 0 m 1,0,-1
 817 1377 l 1,1,-1
 116 1377 l 1,2,-1
 131 1488 l 1,3,-1
 926 1488 l 1,4,-1
 942 1365 l 1,5,-1
 414 0 l 1,6,-1
 276 0 l 1,0,-1
EndSplineSet
EndChar

StartChar: eight
Encoding: 56 56 26
Width: 1196
GlyphClass: 2
Flags: HW
LayerCount: 2
Fore
SplineSet
601 856 m 1,0,1
 912 917 912 917 912 1146 c 0,2,3
 912 1271 912 1271 821 1339 c 128,-1,4
 730 1407 730 1407 600.5 1407 c 128,-1,5
 471 1407 471 1407 378.5 1338.5 c 128,-1,6
 286 1270 286 1270 286 1146 c 0,7,8
 286 919 286 919 601 856 c 1,0,1
355 163.5 m 128,-1,10
 454 82 454 82 600.5 82 c 128,-1,11
 747 82 747 82 844 163 c 128,-1,12
 941 244 941 244 941 383 c 128,-1,13
 941 522 941 522 849 616.5 c 128,-1,14
 757 711 757 711 601 750 c 1,15,16
 445 710 445 710 350.5 615.5 c 128,-1,17
 256 521 256 521 256 383 c 128,-1,9
 256 245 256 245 355 163.5 c 128,-1,10
786 4 m 128,-1,19
 700 -23 700 -23 584 -23 c 128,-1,20
 468 -23 468 -23 360.5 22.5 c 128,-1,21
 253 68 253 68 187 162 c 128,-1,22
 121 256 121 256 121 393.5 c 128,-1,23
 121 531 121 531 212 644.5 c 128,-1,24
 303 758 303 758 466 803 c 1,25,26
 316 844 316 844 234.5 930.5 c 128,-1,27
 153 1017 153 1017 153 1144 c 0,28,29
 153 1314 153 1314 277 1414 c 128,-1,30
 401 1514 401 1514 600.5 1514 c 128,-1,31
 800 1514 800 1514 921.5 1414.5 c 128,-1,32
 1043 1315 1043 1315 1043 1144 c 0,33,34
 1043 1017 1043 1017 965 930.5 c 128,-1,35
 887 844 887 844 747 803 c 1,36,37
 900 758 900 758 988 644.5 c 128,-1,38
 1076 531 1076 531 1076 384 c 0,39,40
 1076 288 1076 288 1038.5 209.5 c 128,-1,41
 1001 131 1001 131 936.5 81 c 128,-1,18
 872 31 872 31 786 4 c 128,-1,19
EndSplineSet
EndChar

StartChar: nine
Encoding: 57 57 27
Width: 1142
GlyphClass: 2
Flags: HW
LayerCount: 2
Fore
SplineSet
584 1407 m 0,0,1
 474 1407 474 1407 389 1354 c 128,-1,2
 304 1301 304 1301 261.5 1220 c 128,-1,3
 219 1139 219 1139 219 1047 c 0,4,5
 219 898 219 898 317 801 c 128,-1,6
 415 704 415 704 585 704 c 128,-1,7
 755 704 755 704 843.5 807 c 128,-1,8
 932 910 932 910 932 1052 c 128,-1,9
 932 1194 932 1194 841.5 1300.5 c 128,-1,10
 751 1407 751 1407 584 1407 c 0,0,1
824 677 m 1,11,12
 698 596 698 596 567 596 c 128,-1,13
 436 596 436 596 331 649.5 c 128,-1,14
 226 703 226 703 159.5 807.5 c 128,-1,15
 93 912 93 912 93 1026.5 c 128,-1,16
 93 1141 93 1141 127 1226 c 128,-1,17
 161 1311 161 1311 223 1375 c 0,18,19
 358 1514 358 1514 581 1514 c 0,20,21
 697 1514 697 1514 789 1474.5 c 0,22,23
 880 1436 880 1436 938 1368 c 0,24,25
 1056 1230 1056 1230 1056 1030 c 0,26,27
 1056 883 1056 883 1011.5 782 c 128,-1,28
 967 681 967 681 824 478 c 0,29,30
 824 477 824 477 428 0 c 1,31,-1
 265 0 l 1,32,-1
 824 677 l 1,11,12
EndSplineSet
EndChar

StartChar: colon
Encoding: 58 58 28
Width: 510
GlyphClass: 2
Flags: HW
LayerCount: 2
Fore
SplineSet
167 927 m 1,0,-1
 167 1136 l 1,1,-1
 346 1136 l 1,2,-1
 346 927 l 1,3,-1
 167 927 l 1,0,-1
167 -37 m 1,4,-1
 167 174 l 1,5,-1
 346 174 l 1,6,-1
 346 -37 l 1,7,-1
 167 -37 l 1,4,-1
EndSplineSet
EndChar

StartChar: semicolon
Encoding: 59 59 29
Width: 550
GlyphClass: 2
Flags: HW
LayerCount: 2
Fore
SplineSet
197 928 m 1,0,-1
 197 1136 l 1,1,-1
 376 1136 l 1,2,-1
 376 928 l 1,3,-1
 197 928 l 1,0,-1
152 -302 m 1,4,-1
 208 165 l 1,5,-1
 370 165 l 1,6,-1
 245 -302 l 1,7,-1
 152 -302 l 1,4,-1
EndSplineSet
EndChar

StartChar: less
Encoding: 60 60 30
Width: 1165
GlyphClass: 2
Flags: HW
LayerCount: 2
Fore
SplineSet
1052 113 m 1,0,-1
 98 579 l 1,1,-1
 98 658 l 1,2,-1
 1054 1158 l 1,3,-1
 1054 1032 l 1,4,-1
 247 622 l 1,5,-1
 1052 240 l 1,6,-1
 1052 113 l 1,0,-1
EndSplineSet
EndChar

StartChar: equal
Encoding: 61 61 31
Width: 1240
GlyphClass: 2
Flags: HW
LayerCount: 2
Fore
SplineSet
149 829 m 1,0,-1
 149 941 l 1,1,-1
 1091 941 l 1,2,-1
 1091 829 l 1,3,-1
 149 829 l 1,0,-1
150 390 m 1,4,-1
 150 500 l 1,5,-1
 1090 500 l 1,6,-1
 1090 390 l 1,7,-1
 150 390 l 1,4,-1
EndSplineSet
EndChar

StartChar: greater
Encoding: 62 62 32
Width: 1167
GlyphClass: 2
Flags: HW
LayerCount: 2
Fore
SplineSet
113 122 m 1,0,-1
 113 250 l 1,1,-1
 919 622 l 1,2,-1
 116 1042 l 1,3,-1
 116 1165 l 1,4,-1
 1070 656 l 1,5,-1
 1070 577 l 1,6,-1
 113 122 l 1,0,-1
EndSplineSet
EndChar

StartChar: question
Encoding: 63 63 33
Width: 855
GlyphClass: 2
Flags: HW
LayerCount: 2
Fore
SplineSet
439 28 m 128,-1,1
 414 -1 414 -1 363.5 -1 c 128,-1,2
 313 -1 313 -1 287.5 28 c 128,-1,3
 262 57 262 57 262 95.5 c 128,-1,4
 262 134 262 134 287.5 163 c 128,-1,5
 313 192 313 192 363.5 192 c 128,-1,6
 414 192 414 192 439 163.5 c 128,-1,7
 464 135 464 135 464 96 c 128,-1,0
 464 57 464 57 439 28 c 128,-1,1
546 1346 m 0,8,9
 484 1410 484 1410 365.5 1410 c 128,-1,10
 247 1410 247 1410 117 1330 c 1,11,-1
 83 1426 l 1,12,13
 143 1468 143 1468 233 1492.5 c 128,-1,14
 323 1517 323 1517 394 1517 c 0,15,16
 556 1517 556 1517 649 1419 c 128,-1,17
 742 1321 742 1321 742 1173 c 0,18,19
 742 1047 742 1047 656 894 c 0,20,21
 616 824 616 824 572 754 c 0,22,23
 448 560 448 560 379 395 c 1,24,-1
 314 395 l 1,25,26
 313 403 313 403 313 411 c 0,27,28
 312 507 312 507 410 681 c 0,29,30
 454 761 454 761 500 843 c 0,31,32
 609 1041 609 1041 609 1160 c 0,33,34
 609 1281 609 1281 546 1346 c 0,8,9
EndSplineSet
EndChar

StartChar: at
Encoding: 64 64 34
Width: 1867
GlyphClass: 2
Flags: HW
LayerCount: 2
Fore
SplineSet
720.5 475 m 128,-1,1
 750 423 750 423 813 423 c 128,-1,2
 876 423 876 423 925.5 445 c 128,-1,3
 975 467 975 467 1009 520.5 c 128,-1,4
 1043 574 1043 574 1058 610 c 0,5,6
 1085 675 1085 675 1116.5 776.5 c 128,-1,7
 1148 878 1148 878 1193 1034 c 1,8,9
 1138 1060 1138 1060 1054.5 1060 c 128,-1,10
 971 1060 971 1060 914 1031.5 c 128,-1,11
 857 1003 857 1003 817 956 c 0,12,13
 777 910 777 910 748 850 c 0,14,15
 691 733 691 733 691 630 c 128,-1,0
 691 527 691 527 720.5 475 c 128,-1,1
1331 5 m 1,16,17
 1135 -82 1135 -82 895.5 -82 c 129,-1,18
 656 -82 656 -82 487 7.5 c 128,-1,19
 318 97 318 97 224.5 270.5 c 128,-1,20
 131 444 131 444 131 682 c 0,21,22
 131 857 131 857 193.5 1010 c 128,-1,23
 256 1163 256 1163 366 1274.5 c 128,-1,24
 476 1386 476 1386 634.5 1450 c 128,-1,25
 793 1514 793 1514 993.5 1514 c 128,-1,26
 1194 1514 1194 1514 1365 1433.5 c 128,-1,27
 1536 1353 1536 1353 1635.5 1198.5 c 128,-1,28
 1735 1044 1735 1044 1735 839 c 0,29,30
 1734 568 1734 568 1538 416 c 0,31,32
 1422 327 1422 327 1281 326 c 0,33,34
 1204 326 1204 326 1151 373.5 c 128,-1,35
 1098 421 1098 421 1084 494 c 1,36,37
 1045 423 1045 423 968.5 377.5 c 128,-1,38
 892 332 892 332 803 332 c 128,-1,39
 714 332 714 332 664 368 c 0,40,41
 570 437 570 437 571 598 c 0,42,43
 572 751 572 751 652 892 c 0,44,45
 740 1047 740 1047 880 1109 c 0,46,47
 956 1143 956 1143 1030 1143 c 0,48,49
 1186 1143 1186 1143 1332 1095 c 1,50,51
 1317 1048 1317 1048 1286 957 c 128,-1,52
 1255 866 1255 866 1238 815 c 0,53,54
 1192 677 1192 677 1192 599.5 c 128,-1,55
 1192 522 1192 522 1218 469 c 128,-1,56
 1244 416 1244 416 1296 416 c 128,-1,57
 1348 416 1348 416 1405 446 c 128,-1,58
 1462 476 1462 476 1509.5 529.5 c 128,-1,59
 1557 583 1557 583 1586.5 666.5 c 128,-1,60
 1616 750 1616 750 1616 848 c 0,61,62
 1616 1021 1616 1021 1534.5 1149 c 128,-1,63
 1453 1277 1453 1277 1311.5 1342 c 128,-1,64
 1170 1407 1170 1407 1018.5 1407 c 128,-1,65
 867 1407 867 1407 759.5 1379.5 c 128,-1,66
 652 1352 652 1352 558.5 1293 c 128,-1,67
 465 1234 465 1234 397 1148 c 0,68,69
 251 964 251 964 251 665 c 128,-1,70
 251 366 251 366 420 191.5 c 128,-1,71
 589 17 589 17 885 17 c 0,72,73
 1099 17 1099 17 1305 102 c 1,74,-1
 1331 5 l 1,16,17
EndSplineSet
EndChar

StartChar: A
Encoding: 65 65 35
Width: 1276
GlyphClass: 2
Flags: HW
LayerCount: 2
Fore
SplineSet
380 599 m 1,0,-1
 902 599 l 1,1,2
 677 1245 677 1245 647 1359 c 1,3,4
 620 1260 620 1260 441 767 c 2,5,-1
 380 599 l 1,0,-1
6 0 m 1,6,-1
 587 1488 l 1,7,-1
 710 1488 l 1,8,-1
 1270 0 l 1,9,-1
 1138 0 l 1,10,-1
 948 505 l 1,11,-1
 331 505 l 1,12,-1
 133 0 l 1,13,-1
 6 0 l 1,6,-1
EndSplineSet
EndChar

StartChar: B
Encoding: 66 66 36
Width: 1265
GlyphClass: 2
Flags: HW
LayerCount: 2
Fore
SplineSet
310 825 m 1,0,-1
 651 825 l 2,1,2
 902 824 902 824 960 966 c 0,3,4
 984 1022 984 1022 984 1107 c 0,5,6
 984 1263 984 1263 887.5 1323.5 c 128,-1,7
 791 1384 791 1384 582 1384 c 2,8,-1
 310 1384 l 1,9,-1
 310 825 l 1,0,-1
310 100 m 1,10,-1
 653 100 l 2,11,12
 1058 100 1058 100 1058 419 c 0,13,14
 1058 592 1058 592 946 659.5 c 128,-1,15
 834 727 834 727 595 727 c 2,16,-1
 310 727 l 1,17,-1
 310 100 l 1,10,-1
182 0 m 1,18,-1
 182 1488 l 1,19,-1
 588 1488 l 2,20,21
 865 1488 865 1488 992.5 1396 c 128,-1,22
 1120 1304 1120 1304 1120 1116 c 0,23,24
 1120 1030 1120 1030 1107 996.5 c 128,-1,25
 1094 963 1094 963 1076 930.5 c 128,-1,26
 1058 898 1058 898 1032 874 c 0,27,28
 969 815 969 815 873 785 c 1,29,30
 1029 762 1029 762 1112 660 c 128,-1,31
 1195 558 1195 558 1195 419 c 0,32,33
 1195 222 1195 222 1070 111 c 128,-1,34
 945 0 945 0 686 0 c 2,35,-1
 182 0 l 1,18,-1
EndSplineSet
EndChar

StartChar: C
Encoding: 67 67 37
Width: 1286
GlyphClass: 2
Flags: HW
LayerCount: 2
Fore
SplineSet
813 -23 m 0,0,1
 642 -23 642 -23 508 35.5 c 128,-1,2
 374 94 374 94 290 198 c 0,3,4
 118 409 118 409 118 749 c 0,5,6
 118 971 118 971 199.5 1142.5 c 128,-1,7
 281 1314 281 1314 443 1414 c 128,-1,8
 605 1514 605 1514 837 1514 c 128,-1,9
 1069 1514 1069 1514 1240 1412 c 1,10,-1
 1179 1313 l 1,11,12
 1023 1407 1023 1407 827 1407 c 0,13,14
 690 1407 690 1407 581 1355.5 c 128,-1,15
 472 1304 472 1304 402 1213 c 0,16,17
 260 1026 260 1026 260 742 c 0,18,19
 260 462 260 462 394 280 c 0,20,21
 462 188 462 188 574 136 c 128,-1,22
 686 84 686 84 837.5 84 c 128,-1,23
 989 84 989 84 1182 171 c 1,24,-1
 1208 68 l 1,25,26
 1062 -23 1062 -23 813 -23 c 0,0,1
EndSplineSet
EndChar

StartChar: D
Encoding: 68 68 38
Width: 1498
GlyphClass: 2
Flags: HW
LayerCount: 2
Fore
SplineSet
182 0 m 1,0,-1
 182 1488 l 1,1,-1
 585 1488 l 2,2,3
 951 1488 951 1488 1160 1314 c 0,4,5
 1380 1130 1380 1130 1380 754 c 128,-1,6
 1380 378 1380 378 1179 189 c 128,-1,7
 978 0 978 0 616 0 c 2,8,-1
 182 0 l 1,0,-1
310 107 m 1,9,-1
 602 107 l 2,10,11
 912 107 912 107 1074.5 265.5 c 128,-1,12
 1237 424 1237 424 1237 738 c 0,13,14
 1237 1082 1237 1082 1058 1236 c 0,15,16
 887 1382 887 1382 573 1382 c 2,17,-1
 310 1382 l 1,18,-1
 310 107 l 1,9,-1
EndSplineSet
EndChar

StartChar: E
Encoding: 69 69 39
Width: 1142
GlyphClass: 2
Flags: HW
LayerCount: 2
Fore
SplineSet
182 0 m 1,0,-1
 182 1488 l 1,1,-1
 1011 1488 l 1,2,-1
 1006 1382 l 1,3,-1
 310 1382 l 1,4,-1
 310 822 l 1,5,-1
 972 822 l 1,6,-1
 972 713 l 1,7,-1
 310 713 l 1,8,-1
 310 107 l 1,9,-1
 1028 107 l 1,10,-1
 1017 0 l 1,11,-1
 182 0 l 1,0,-1
EndSplineSet
EndChar

StartChar: F
Encoding: 70 70 40
Width: 1025
GlyphClass: 2
Flags: HW
LayerCount: 2
Fore
SplineSet
182 0 m 1,0,-1
 182 1488 l 1,1,-1
 982 1488 l 1,2,-1
 976 1377 l 1,3,-1
 311 1377 l 1,4,-1
 311 789 l 1,5,-1
 946 789 l 1,6,-1
 946 686 l 1,7,-1
 311 686 l 1,8,-1
 311 0 l 1,9,-1
 182 0 l 1,0,-1
EndSplineSet
EndChar

StartChar: G
Encoding: 71 71 41
Width: 1469
GlyphClass: 2
Flags: HW
LayerCount: 2
Fore
SplineSet
1092.5 1.5 m 128,-1,1
 978 -23 978 -23 831.5 -23 c 128,-1,2
 685 -23 685 -23 570.5 15.5 c 128,-1,3
 456 54 456 54 373 123 c 128,-1,4
 290 192 290 192 232 288 c 0,5,6
 118 478 118 478 118 721.5 c 128,-1,7
 118 965 118 965 202 1138.5 c 128,-1,8
 286 1312 286 1312 452.5 1413 c 128,-1,9
 619 1514 619 1514 858 1514 c 128,-1,10
 1097 1514 1097 1514 1291 1399 c 1,11,-1
 1234 1296 l 1,12,13
 1152 1346 1152 1346 1048.5 1376.5 c 128,-1,14
 945 1407 945 1407 823.5 1407 c 128,-1,15
 702 1407 702 1407 587.5 1355 c 0,16,17
 473 1304 473 1304 402 1212 c 0,18,19
 258 1026 258 1026 258 742 c 0,20,21
 258 440 258 440 406 266 c 0,22,23
 560 84 560 84 864 83 c 0,24,25
 1021 83 1021 83 1210 158 c 1,26,-1
 1210 634 l 1,27,-1
 841 634 l 1,28,-1
 849 745 l 1,29,-1
 1329 745 l 1,30,-1
 1329 89 l 1,31,0
 1207 26 1207 26 1092.5 1.5 c 128,-1,1
EndSplineSet
EndChar

StartChar: H
Encoding: 72 72 42
Width: 1474
GlyphClass: 2
Flags: HW
LayerCount: 2
Fore
SplineSet
182 0 m 1,0,-1
 182 1488 l 1,1,-1
 310 1488 l 1,2,-1
 310 830 l 1,3,-1
 1164 830 l 1,4,-1
 1164 1488 l 1,5,-1
 1292 1488 l 1,6,-1
 1292 0 l 1,7,-1
 1164 0 l 1,8,-1
 1164 718 l 1,9,-1
 310 718 l 1,10,-1
 310 0 l 1,11,-1
 182 0 l 1,0,-1
EndSplineSet
EndChar

StartChar: I
Encoding: 73 73 43
Width: 514
GlyphClass: 2
Flags: HW
LayerCount: 2
Fore
SplineSet
193 0 m 1,0,-1
 193 1488 l 1,1,-1
 321 1488 l 1,2,-1
 321 0 l 1,3,-1
 193 0 l 1,0,-1
EndSplineSet
EndChar

StartChar: J
Encoding: 74 74 44
Width: 512
GlyphClass: 2
Flags: HW
LayerCount: 2
Fore
SplineSet
1 -138 m 1,0,-1
 -20 -46 l 1,1,-1
 40 -43 l 1,2,3
 138 -43 138 -43 176 -6 c 0,4,5
 234 50 234 50 234 170 c 2,6,-1
 234 1514 l 1,7,-1
 367 1514 l 1,8,-1
 367 303 l 2,9,10
 367 104 367 104 357 68.5 c 128,-1,11
 347 33 347 33 335.5 -2 c 128,-1,12
 324 -37 324 -37 306 -52.5 c 128,-1,13
 288 -68 288 -68 261.5 -88.5 c 0,14,15
 235 -110 235 -110 200 -118 c 0,16,17
 116 -139 116 -139 13 -138 c 2,18,-1
 1 -138 l 1,0,-1
EndSplineSet
EndChar

StartChar: K
Encoding: 75 75 45
Width: 1224
GlyphClass: 2
Flags: HW
LayerCount: 2
Fore
SplineSet
182 0 m 1,0,-1
 182 1488 l 1,1,-1
 311 1488 l 1,2,-1
 311 719 l 1,3,4
 355 768 355 768 427 848 c 0,5,6
 756 1211 756 1211 905 1376 c 2,7,-1
 1006 1488 l 1,8,-1
 1175 1488 l 1,9,-1
 554 817 l 1,10,-1
 1226 0 l 1,11,-1
 1063 0 l 1,12,-1
 456 739 l 1,13,-1
 311 603 l 1,14,-1
 311 0 l 1,15,-1
 182 0 l 1,0,-1
EndSplineSet
EndChar

StartChar: L
Encoding: 76 76 46
Width: 998
GlyphClass: 2
Flags: HW
LayerCount: 2
Fore
SplineSet
182 0 m 1,0,-1
 182 1488 l 1,1,-1
 311 1488 l 1,2,-1
 311 113 l 1,3,-1
 980 113 l 1,4,-1
 974 0 l 1,5,-1
 182 0 l 1,0,-1
EndSplineSet
EndChar

StartChar: M
Encoding: 77 77 47
Width: 1804
GlyphClass: 2
Flags: HW
LayerCount: 2
Fore
SplineSet
182 0 m 1,0,-1
 182 1488 l 1,1,-1
 362 1488 l 1,2,-1
 913 231 l 1,3,-1
 1449 1488 l 1,4,-1
 1622 1488 l 1,5,-1
 1622 0 l 1,6,-1
 1495 0 l 1,7,-1
 1495 1001 l 1,8,-1
 1502 1339 l 1,9,-1
 1465 1219 l 1,10,-1
 976 85 l 1,11,-1
 836 85 l 1,12,-1
 341 1222 l 1,13,-1
 302 1342 l 1,14,-1
 309 996 l 1,15,-1
 309 0 l 1,16,-1
 182 0 l 1,0,-1
EndSplineSet
EndChar

StartChar: N
Encoding: 78 78 48
Width: 1499
GlyphClass: 2
Flags: HW
LayerCount: 2
Fore
SplineSet
182 0 m 1,0,-1
 182 1488 l 1,1,-1
 331 1488 l 1,2,-1
 1150 233 l 1,3,-1
 1203 160 l 1,4,5
 1196 468 1196 468 1196 543 c 2,6,-1
 1196 1488 l 1,7,-1
 1317 1488 l 1,8,-1
 1317 0 l 1,9,-1
 1165 0 l 1,10,-1
 348 1253 l 1,11,-1
 297 1326 l 1,12,13
 305 1101 305 1101 305 938 c 2,14,-1
 305 0 l 1,15,-1
 182 0 l 1,0,-1
EndSplineSet
EndChar

StartChar: O
Encoding: 79 79 49
Width: 1627
GlyphClass: 2
Flags: HW
LayerCount: 2
Fore
SplineSet
1115 35 m 128,-1,1
 982 -23 982 -23 813.5 -23 c 128,-1,2
 645 -23 645 -23 511.5 33.5 c 128,-1,3
 378 90 378 90 292 192 c 0,4,5
 118 401 118 401 118 749.5 c 128,-1,6
 118 1098 118 1098 300.5 1306 c 128,-1,7
 483 1514 483 1514 813 1514 c 128,-1,8
 1143 1514 1143 1514 1326 1304.5 c 128,-1,9
 1509 1095 1509 1095 1509 743 c 0,10,11
 1510 407 1510 407 1334 196 c 0,12,0
 1248 93 1248 93 1115 35 c 128,-1,1
815 82 m 0,13,14
 998 82 998 82 1124 166 c 0,15,16
 1366 328 1366 328 1367 745 c 0,17,18
 1367 1061 1367 1061 1227 1234 c 128,-1,19
 1087 1407 1087 1407 815 1407 c 128,-1,20
 543 1407 543 1407 400.5 1234.5 c 128,-1,21
 258 1062 258 1062 258 750 c 128,-1,22
 258 438 258 438 399.5 260 c 128,-1,23
 541 82 541 82 815 82 c 0,13,14
EndSplineSet
EndChar

StartChar: P
Encoding: 80 80 50
Width: 1167
GlyphClass: 2
Flags: HW
LayerCount: 2
Fore
SplineSet
311 791 m 1,0,1
 399 779 399 779 535.5 779 c 128,-1,2
 672 779 672 779 753 802 c 128,-1,3
 834 825 834 825 874 854 c 128,-1,4
 914 883 914 883 935 936 c 128,-1,5
 956 989 956 989 958.5 1021 c 128,-1,6
 961 1053 961 1053 961 1084 c 2,7,-1
 961 1117 l 2,8,9
 961 1248 961 1248 872 1312 c 128,-1,10
 783 1376 783 1376 642 1376 c 2,11,-1
 311 1376 l 1,12,-1
 311 791 l 1,0,1
182 0 m 1,13,-1
 182 1488 l 1,14,-1
 637 1488 l 2,15,16
 830 1488 830 1488 954 1404 c 0,17,18
 1088 1314 1088 1314 1088 1116 c 0,19,20
 1088 930 1088 930 1022 836 c 0,21,22
 903 668 903 668 543 668 c 0,23,24
 437 668 437 668 311 681 c 1,25,-1
 311 0 l 1,26,-1
 182 0 l 1,13,-1
EndSplineSet
EndChar

StartChar: Q
Encoding: 81 81 51
Width: 1612
GlyphClass: 2
Flags: HW
LayerCount: 2
Fore
SplineSet
807 91 m 128,-1,1
 1077 91 1077 91 1212 264 c 128,-1,2
 1347 437 1347 437 1347 751.5 c 128,-1,3
 1347 1066 1347 1066 1211 1233 c 128,-1,4
 1075 1400 1075 1400 807.5 1400 c 128,-1,5
 540 1400 540 1400 401 1233 c 128,-1,6
 262 1066 262 1066 262 752 c 128,-1,7
 262 438 262 438 399.5 264.5 c 128,-1,0
 537 91 537 91 807 91 c 128,-1,1
1253 -470 m 1,8,9
 1252 -468 1252 -468 1228.5 -438 c 128,-1,10
 1205 -408 1205 -408 1168.5 -359 c 128,-1,11
 1132 -310 1132 -310 1092 -253 c 0,12,13
 991 -109 991 -109 947 -12 c 1,14,15
 878 -23 878 -23 807 -23 c 0,16,17
 462 -23 462 -23 286 193 c 0,18,19
 118 401 118 401 118 752 c 128,-1,20
 118 1103 118 1103 295.5 1308.5 c 128,-1,21
 473 1514 473 1514 805.5 1514 c 128,-1,22
 1138 1514 1138 1514 1316 1306.5 c 128,-1,23
 1494 1099 1494 1099 1494 745 c 0,24,25
 1494 482 1494 482 1388 290 c 128,-1,26
 1282 98 1282 98 1069 17 c 1,27,28
 1122 -77 1122 -77 1210 -205 c 128,-1,29
 1298 -333 1298 -333 1351 -386 c 1,30,-1
 1253 -470 l 1,8,9
EndSplineSet
EndChar

StartChar: R
Encoding: 82 82 52
Width: 1333
GlyphClass: 2
Flags: HW
LayerCount: 2
Fore
SplineSet
310 831 m 1,0,1
 546 828 546 828 716 828 c 128,-1,2
 886 828 886 828 965 897.5 c 128,-1,3
 1044 967 1044 967 1044 1104.5 c 128,-1,4
 1044 1242 1044 1242 972.5 1311.5 c 128,-1,5
 901 1381 901 1381 729 1381 c 2,6,-1
 310 1381 l 1,7,-1
 310 831 l 1,0,1
182 0 m 1,8,-1
 182 1488 l 1,9,-1
 606 1488 l 2,10,11
 862 1488 862 1488 974 1446 c 0,12,13
 1076 1408 1076 1408 1120 1334 c 0,14,15
 1171 1250 1171 1250 1171 1113.5 c 128,-1,16
 1171 977 1171 977 1104 879 c 128,-1,17
 1037 781 1037 781 899 746 c 1,18,19
 959 623 959 623 989 559 c 1,20,-1
 1233 0 l 1,21,-1
 1084 0 l 1,22,-1
 874 509 l 2,23,24
 853 559 853 559 780 725 c 1,25,26
 760 722 760 722 632 722 c 1,27,-1
 310 728 l 1,28,-1
 310 0 l 1,29,-1
 182 0 l 1,8,-1
EndSplineSet
EndChar

StartChar: S
Encoding: 83 83 53
Width: 1247
GlyphClass: 2
Flags: HW
LayerCount: 2
Fore
SplineSet
1021.5 93 m 128,-1,1
 884 -23 884 -23 676.5 -23 c 128,-1,2
 469 -23 469 -23 324 17 c 128,-1,3
 179 57 179 57 99 105 c 1,4,-1
 147 196 l 1,5,6
 358 82 358 82 669 82 c 0,7,8
 840 82 840 82 932.5 171 c 128,-1,9
 1025 260 1025 260 1025 422 c 0,10,11
 1025 536 1025 536 973 602 c 0,12,13
 917 673 917 673 739 708 c 2,14,-1
 499 756 l 2,15,16
 298 796 298 796 197.5 882 c 128,-1,17
 97 968 97 968 97 1127 c 0,18,19
 98 1420 98 1420 428 1492 c 0,20,21
 528 1514 528 1514 654 1514 c 128,-1,22
 780 1514 780 1514 900.5 1483 c 128,-1,23
 1021 1452 1021 1452 1098 1413 c 1,24,-1
 1065 1315 l 1,25,26
 1006 1348 1006 1348 890.5 1377.5 c 128,-1,27
 775 1407 775 1407 651 1407 c 0,28,29
 440 1407 440 1407 334 1336.5 c 128,-1,30
 228 1266 228 1266 228 1114 c 0,31,32
 228 1019 228 1019 295 961.5 c 128,-1,33
 362 904 362 904 493 876 c 1,34,-1
 761 821 l 2,35,36
 956 780 956 780 1054 696 c 0,37,38
 1160 605 1160 605 1159.5 407 c 128,-1,0
 1159 209 1159 209 1021.5 93 c 128,-1,1
EndSplineSet
EndChar

StartChar: T
Encoding: 84 84 54
Width: 1082
GlyphClass: 2
Flags: HW
LayerCount: 2
Fore
SplineSet
476 0 m 1,0,-1
 476 1378 l 1,1,-1
 8 1378 l 1,2,-1
 8 1488 l 1,3,-1
 1074 1488 l 1,4,-1
 1074 1378 l 1,5,-1
 606 1378 l 1,6,-1
 606 0 l 1,7,-1
 476 0 l 1,0,-1
EndSplineSet
EndChar

StartChar: U
Encoding: 85 85 55
Width: 1408
GlyphClass: 2
Flags: HW
LayerCount: 2
Fore
SplineSet
685 -23 m 0,0,1
 555 -23 555 -23 449 16 c 128,-1,2
 343 55 343 55 280 128 c 0,3,4
 157 271 157 271 157 517 c 2,5,-1
 157 1488 l 1,6,-1
 285 1488 l 1,7,-1
 285 497 l 2,8,9
 285 284 285 284 390 181.5 c 128,-1,10
 495 79 495 79 707 79 c 0,11,12
 1123 79 1123 79 1123 498 c 2,13,-1
 1123 1488 l 1,14,-1
 1251 1488 l 1,15,-1
 1251 515 l 2,16,17
 1251 -23 1251 -23 685 -23 c 0,0,1
EndSplineSet
EndChar

StartChar: V
Encoding: 86 86 56
Width: 1206
GlyphClass: 2
Flags: HW
LayerCount: 2
Fore
SplineSet
531 0 m 1,0,-1
 -5 1488 l 1,1,-1
 137 1488 l 1,2,-1
 475 529 l 1,3,4
 496 464 496 464 520 394 c 0,5,6
 572 246 572 246 599 137 c 1,7,8
 608 184 608 184 652 313 c 128,-1,9
 696 442 696 442 747.5 604.5 c 128,-1,10
 799 767 799 767 900 1025 c 128,-1,11
 1001 1283 1001 1283 1067 1488 c 1,12,-1
 1211 1488 l 1,13,-1
 668 0 l 1,14,-1
 531 0 l 1,0,-1
EndSplineSet
EndChar

StartChar: W
Encoding: 87 87 57
Width: 1995
GlyphClass: 2
Flags: HW
LayerCount: 2
Fore
SplineSet
464 0 m 1,0,-1
 2 1488 l 1,1,-1
 143 1488 l 1,2,-1
 539 142 l 1,3,-1
 919 1448 l 1,4,-1
 1087 1448 l 1,5,-1
 1458 143 l 1,6,-1
 1853 1488 l 1,7,-1
 1993 1488 l 1,8,-1
 1532 0 l 1,9,-1
 1389 0 l 1,10,-1
 1006 1321 l 1,11,-1
 606 0 l 1,12,-1
 464 0 l 1,0,-1
EndSplineSet
EndChar

StartChar: X
Encoding: 88 88 58
Width: 1196
GlyphClass: 2
Flags: HW
LayerCount: 2
Fore
SplineSet
18 0 m 1,0,-1
 521 786 l 1,1,-1
 49 1488 l 1,2,-1
 202 1488 l 1,3,-1
 603 851 l 1,4,-1
 1021 1488 l 1,5,-1
 1158 1488 l 1,6,-1
 686 794 l 1,7,-1
 1178 0 l 1,8,-1
 1032 0 l 1,9,-1
 600 706 l 1,10,-1
 156 0 l 1,11,-1
 18 0 l 1,0,-1
EndSplineSet
EndChar

StartChar: Y
Encoding: 89 89 59
Width: 1166
GlyphClass: 2
Flags: HW
LayerCount: 2
Fore
SplineSet
501 0 m 1,0,-1
 501 589 l 1,1,-1
 5 1488 l 1,2,-1
 144 1488 l 1,3,-1
 575 703 l 1,4,-1
 1020 1488 l 1,5,-1
 1161 1488 l 1,6,-1
 632 593 l 1,7,-1
 632 0 l 1,8,-1
 501 0 l 1,0,-1
EndSplineSet
EndChar

StartChar: Z
Encoding: 90 90 60
Width: 1173
GlyphClass: 2
Flags: HW
LayerCount: 2
Fore
SplineSet
97 0 m 1,0,-1
 97 111 l 1,1,-1
 923 1376 l 1,2,-1
 127 1376 l 1,3,-1
 127 1488 l 1,4,-1
 1091 1488 l 1,5,-1
 1091 1384 l 1,6,-1
 259 113 l 1,7,-1
 1099 113 l 1,8,-1
 1091 0 l 1,9,-1
 97 0 l 1,0,-1
EndSplineSet
EndChar

StartChar: bracketleft
Encoding: 91 91 61
Width: 688
GlyphClass: 2
Flags: HW
LayerCount: 2
Fore
SplineSet
147 -264 m 1,0,-1
 147 1514 l 1,1,-1
 595 1514 l 1,2,-1
 595 1414 l 1,3,-1
 283 1414 l 1,4,-1
 283 -164 l 1,5,-1
 595 -164 l 1,6,-1
 595 -264 l 1,7,-1
 147 -264 l 1,0,-1
EndSplineSet
EndChar

StartChar: backslash
Encoding: 92 92 62
Width: 816
GlyphClass: 2
Flags: HW
LayerCount: 2
Fore
SplineSet
652 -11 m 1,0,-1
 62 1514 l 1,1,-1
 184 1514 l 1,2,-1
 774 -11 l 1,3,-1
 652 -11 l 1,0,-1
EndSplineSet
EndChar

StartChar: bracketright
Encoding: 93 93 63
Width: 688
GlyphClass: 2
Flags: HW
LayerCount: 2
Fore
SplineSet
93 -264 m 1,0,-1
 93 -164 l 1,1,-1
 405 -164 l 1,2,-1
 405 1414 l 1,3,-1
 93 1414 l 1,4,-1
 93 1514 l 1,5,-1
 541 1514 l 1,6,-1
 541 -264 l 1,7,-1
 93 -264 l 1,0,-1
EndSplineSet
EndChar

StartChar: asciicircum
Encoding: 94 94 64
Width: 1158
GlyphClass: 2
Flags: HW
LayerCount: 2
Fore
SplineSet
84 558 m 1,0,-1
 521 1488 l 1,1,-1
 611 1488 l 1,2,-1
 1071 558 l 1,3,-1
 958 558 l 1,4,-1
 565 1356 l 1,5,-1
 200 558 l 1,6,-1
 84 558 l 1,0,-1
EndSplineSet
EndChar

StartChar: underscore
Encoding: 95 95 65
Width: 1053
GlyphClass: 2
Flags: HW
LayerCount: 2
Fore
SplineSet
73 -108 m 1,0,-1
 73 0 l 1,1,-1
 978 0 l 1,2,-1
 978 -108 l 1,3,-1
 73 -108 l 1,0,-1
EndSplineSet
EndChar

StartChar: grave
Encoding: 96 96 66
Width: 702
GlyphClass: 2
Flags: HW
LayerCount: 2
Fore
SplineSet
460 1287 m 1,0,-1
 184 1674 l 1,1,-1
 342 1674 l 1,2,-1
 533 1287 l 1,3,-1
 460 1287 l 1,0,-1
EndSplineSet
EndChar

StartChar: a
Encoding: 97 97 67
Width: 1077
GlyphClass: 2
Flags: HW
LayerCount: 2
Fore
SplineSet
223 275 m 0,0,1
 223 75 223 75 458 75 c 0,2,3
 572 75 572 75 671.5 150.5 c 128,-1,4
 771 226 771 226 802 360 c 1,5,-1
 802 547 l 1,6,7
 658 535 658 535 657 535 c 0,8,9
 413 513 413 513 318 455 c 128,-1,10
 223 397 223 397 223 275 c 0,0,1
238 927 m 1,11,-1
 199 1022 l 1,12,13
 261 1062 261 1062 361 1089 c 128,-1,14
 461 1116 461 1116 557 1116 c 0,15,16
 754 1116 754 1116 840 1031.5 c 128,-1,17
 926 947 926 947 926 732 c 2,18,-1
 926 0 l 1,19,-1
 829 0 l 1,20,21
 824 23 824 23 814.5 91 c 128,-1,22
 805 159 805 159 805 161 c 1,23,24
 676 -24 676 -24 440 -24 c 0,25,26
 285 -24 285 -24 192 54 c 128,-1,27
 99 132 99 132 99 277 c 0,28,29
 100 450 100 450 244 530 c 0,30,31
 377 605 377 605 615 622 c 1,32,33
 743 630 743 630 805 635 c 1,34,-1
 805 757 l 2,35,36
 805 883 805 883 747.5 946.5 c 128,-1,37
 690 1010 690 1010 539.5 1010 c 128,-1,38
 389 1010 389 1010 238 927 c 1,11,-1
EndSplineSet
EndChar

StartChar: b
Encoding: 98 98 68
Width: 1187
GlyphClass: 2
Flags: HW
LayerCount: 2
Fore
SplineSet
461 108 m 0,0,1
 530 74 530 74 623.5 74.5 c 128,-1,2
 717 75 717 75 784.5 114.5 c 128,-1,3
 852 154 852 154 888 222 c 0,4,5
 958 352 958 352 958 543 c 0,6,7
 958 896 958 896 758 988 c 0,8,9
 700 1015 700 1015 625 1015 c 0,10,11
 452 1015 452 1015 360.5 890.5 c 128,-1,12
 269 766 269 766 270 537 c 1,13,14
 270 201 270 201 461 108 c 0,0,1
619 -24 m 0,15,16
 396 -24 396 -24 264 159 c 1,17,-1
 251 0 l 1,18,-1
 147 0 l 1,19,-1
 147 1521 l 1,20,-1
 270 1532 l 1,21,-1
 270 1163 l 2,22,23
 270 994 270 994 267 930 c 1,24,25
 328 1024 328 1024 422.5 1070 c 128,-1,26
 517 1116 517 1116 619 1116 c 0,27,28
 841 1116 841 1116 965.5 957.5 c 128,-1,29
 1090 799 1090 799 1090 549 c 0,30,31
 1090 198 1090 198 879 51 c 0,32,33
 771 -24 771 -24 619 -24 c 0,15,16
EndSplineSet
EndChar

StartChar: c
Encoding: 99 99 69
Width: 965
GlyphClass: 2
Flags: HW
LayerCount: 2
Fore
SplineSet
604 -24 m 0,0,1
 445 -24 445 -24 328 54 c 128,-1,2
 211 132 211 132 154 257.5 c 128,-1,3
 97 383 97 383 97 519 c 128,-1,4
 97 655 97 655 131 759 c 128,-1,5
 165 863 165 863 227.5 943 c 128,-1,6
 290 1023 290 1023 388.5 1069.5 c 128,-1,7
 487 1116 487 1116 587 1116 c 128,-1,8
 687 1116 687 1116 765.5 1095 c 128,-1,9
 844 1074 844 1074 882 1045 c 1,10,-1
 843 952 l 1,11,12
 740 1010 740 1010 584 1010 c 128,-1,13
 428 1010 428 1010 328 880.5 c 0,14,15
 228 752 228 752 228 542 c 128,-1,16
 228 332 228 332 327.5 205.5 c 128,-1,17
 427 79 427 79 599 79 c 0,18,19
 719 79 719 79 857 139 c 1,20,-1
 876 50 l 1,21,22
 829 15 829 15 754 -4.5 c 128,-1,23
 679 -24 679 -24 604 -24 c 0,0,1
EndSplineSet
EndChar

StartChar: d
Encoding: 100 100 70
Width: 1183
GlyphClass: 2
Flags: HW
LayerCount: 2
Fore
SplineSet
570 75 m 1,0,1
 652 75 652 75 721.5 109 c 128,-1,2
 791 143 791 143 833 205 c 0,3,4
 916 328 916 328 916 526 c 0,5,6
 916 1015 916 1015 556 1015 c 0,7,8
 471 1015 471 1015 406 974.5 c 0,9,10
 342 934 342 934 304 866 c 0,11,12
 230 732 230 732 230 547 c 0,13,14
 230 298 230 298 339 170 c 0,15,16
 420 76 420 76 570 75 c 1,0,1
561 -23 m 0,17,18
 342 -23 342 -23 219.5 129 c 128,-1,19
 97 281 97 281 97 541 c 128,-1,20
 97 801 97 801 223.5 958.5 c 128,-1,21
 350 1116 350 1116 557 1116 c 0,22,23
 659 1116 659 1116 761 1072 c 128,-1,24
 863 1028 863 1028 916 935 c 1,25,-1
 916 1521 l 1,26,-1
 1036 1532 l 1,27,-1
 1036 0 l 1,28,-1
 933 0 l 1,29,-1
 915 165 l 1,30,31
 858 72 858 72 760.5 24.5 c 128,-1,32
 663 -23 663 -23 561 -23 c 0,17,18
EndSplineSet
EndChar

StartChar: e
Encoding: 101 101 71
Width: 1093
GlyphClass: 2
Flags: HW
LayerCount: 2
Fore
SplineSet
233 633 m 1,0,-1
 857 633 l 1,1,2
 857 816 857 816 778 913.5 c 128,-1,3
 699 1011 699 1011 560 1011 c 128,-1,4
 421 1011 421 1011 335 907 c 128,-1,5
 249 803 249 803 233 633 c 1,0,-1
992 608 m 1,6,-1
 991 533 l 1,7,-1
 228 533 l 1,8,9
 230 322 230 322 330 198.5 c 128,-1,10
 430 75 430 75 594 75 c 0,11,12
 701 75 701 75 780 100 c 128,-1,13
 859 125 859 125 945 171 c 1,14,-1
 966 78 l 1,15,16
 800 -24 800 -24 582 -24 c 128,-1,17
 364 -24 364 -24 230.5 128 c 128,-1,18
 97 280 97 280 97 535.5 c 128,-1,19
 97 791 97 791 227.5 951 c 128,-1,20
 358 1111 358 1111 565 1116 c 1,21,22
 758 1116 758 1116 875 978 c 128,-1,23
 992 840 992 840 992 608 c 1,6,-1
EndSplineSet
EndChar

StartChar: f
Encoding: 102 102 72
Width: 638
GlyphClass: 2
Flags: HW
LayerCount: 2
Fore
SplineSet
216 0 m 1,0,-1
 216 1005 l 1,1,-1
 36 1005 l 1,2,-1
 44 1082 l 1,3,-1
 216 1096 l 1,4,-1
 216 1137 l 2,5,6
 216 1422 216 1422 352 1507 c 0,7,8
 419 1549 419 1549 523 1549 c 2,9,10
 542 1549 l 2,11,12
 570 1549 570 1549 586.5 1546.5 c 128,-1,13
 603 1544 603 1544 615.5 1542.5 c 128,-1,14
 628 1541 628 1541 634 1540 c 128,-1,15
 640 1539 640 1539 655 1537 c 128,-1,16
 670 1535 670 1535 676 1534 c 1,17,-1
 667 1452 l 1,18,19
 571 1463 571 1463 537 1463 c 0,20,21
 423 1463 423 1463 381.5 1389.5 c 128,-1,22
 340 1316 340 1316 340 1131 c 2,23,-1
 340 1096 l 1,24,-1
 607 1096 l 1,25,-1
 607 1005 l 1,26,-1
 340 1005 l 1,27,-1
 340 0 l 1,28,-1
 216 0 l 1,0,-1
EndSplineSet
EndChar

StartChar: g
Encoding: 103 103 73
Width: 1173
GlyphClass: 2
Flags: HW
LayerCount: 2
Fore
SplineSet
566 101 m 1,0,1
 642 101 642 101 701 124.5 c 128,-1,2
 760 148 760 148 798.5 186.5 c 0,3,4
 838 225 838 225 864 277 c 0,5,6
 912 372 912 372 912 499 c 2,7,-1
 912 613 l 2,8,9
 912 774 912 774 834 888 c 0,10,11
 749 1014 749 1014 566 1014 c 0,12,13
 359 1014 359 1014 271 800 c 0,14,15
 224 686 224 686 224 537 c 0,16,17
 224 322 224 322 330 200 c 0,18,19
 416 102 416 102 566 101 c 1,0,1
912 198 m 1,20,21
 781 0 781 0 553 0 c 0,22,23
 455 0 455 0 374.5 35 c 128,-1,24
 294 70 294 70 242.5 126 c 128,-1,25
 191 182 191 182 156 254 c 0,26,27
 91 388 91 388 91 539 c 0,28,29
 91 834 91 834 246 994 c 0,30,31
 365 1116 365 1116 577 1116 c 0,32,33
 682 1116 682 1116 762.5 1074.5 c 128,-1,34
 843 1033 843 1033 912 942 c 1,35,-1
 924 1096 l 1,36,-1
 1034 1096 l 1,37,-1
 1034 80 l 2,38,39
 1034 -148 1034 -148 992 -250 c 0,40,41
 974 -294 974 -294 935.5 -348.5 c 0,42,43
 898 -403 898 -403 844 -434 c 0,44,45
 715 -509 715 -509 517 -509 c 2,46,-1
 316 -509 l 1,47,-1
 301 -398 l 1,48,-1
 533 -398 l 2,49,50
 758 -398 758 -398 838 -290 c 0,51,52
 893 -216 893 -216 904 -135 c 0,53,54
 919 -26 919 -26 919 43.5 c 128,-1,55
 919 113 919 113 917 129 c 2,56,-1
 912 198 l 1,20,21
EndSplineSet
EndChar

StartChar: h
Encoding: 104 104 74
Width: 1149
GlyphClass: 2
Flags: HW
LayerCount: 2
Fore
SplineSet
147 0 m 1,0,-1
 147 1521 l 1,1,-1
 271 1532 l 1,2,-1
 271 980 l 2,3,4
 271 972 271 972 270.5 971 c 128,-1,5
 270 970 270 970 270 960 c 2,6,7
 268 930 l 1,8,9
 402 1116 402 1116 652 1116 c 0,10,11
 1009 1116 1009 1116 1009 685 c 2,12,-1
 1009 0 l 1,13,-1
 886 0 l 1,14,-1
 886 661 l 2,15,16
 886 846 886 846 829 928.5 c 128,-1,17
 772 1011 772 1011 628.5 1011 c 128,-1,18
 485 1011 485 1011 390 935.5 c 128,-1,19
 295 860 295 860 273 741 c 1,20,21
 271 701 271 701 271 622 c 2,22,-1
 271 0 l 1,23,-1
 147 0 l 1,0,-1
EndSplineSet
EndChar

StartChar: i
Encoding: 105 105 75
Width: 445
GlyphClass: 2
Flags: HW
LayerCount: 2
Fore
SplineSet
169 1320 m 1,0,-1
 169 1488 l 1,1,-1
 293 1488 l 1,2,-1
 293 1320 l 1,3,-1
 169 1320 l 1,0,-1
169 0 m 1,4,-1
 169 1096 l 1,5,-1
 294 1096 l 1,6,-1
 294 0 l 1,7,-1
 169 0 l 1,4,-1
EndSplineSet
EndChar

StartChar: j
Encoding: 106 106 76
Width: 408
GlyphClass: 2
Flags: HW
LayerCount: 2
Fore
SplineSet
161 1321 m 1,0,-1
 161 1488 l 1,1,-1
 286 1488 l 1,2,-1
 286 1321 l 1,3,-1
 161 1321 l 1,0,-1
-58 -550 m 1,4,-1
 -77 -450 l 1,5,-1
 -28 -450 l 2,6,7
 42 -450 42 -450 81 -439.5 c 128,-1,8
 120 -429 120 -429 137.5 -394.5 c 128,-1,9
 155 -360 155 -360 158 -328.5 c 128,-1,10
 161 -297 161 -297 161 -259 c 2,11,12
 161 1096 l 1,13,-1
 286 1096 l 1,14,-1
 286 -247 l 2,15,16
 286 -341 286 -341 273.5 -397 c 128,-1,17
 261 -453 261 -453 226.5 -488.5 c 128,-1,18
 192 -524 192 -524 137.5 -537 c 128,-1,19
 83 -550 83 -550 -9 -550 c 2,20,-1
 -58 -550 l 1,4,-1
EndSplineSet
EndChar

StartChar: k
Encoding: 107 107 77
Width: 986
GlyphClass: 2
Flags: HW
LayerCount: 2
Fore
SplineSet
149 0 m 1,0,-1
 149 1522 l 1,1,-1
 272 1532 l 1,2,-1
 272 568 l 1,3,4
 281 579 281 579 336 639 c 128,-1,5
 391 699 391 699 398 707 c 2,6,-1
 777 1096 l 1,7,-1
 944 1096 l 1,8,-1
 485 638 l 1,9,-1
 976 0 l 1,10,-1
 819 0 l 1,11,-1
 400 568 l 1,12,-1
 272 450 l 1,13,-1
 272 0 l 1,14,-1
 149 0 l 1,0,-1
EndSplineSet
EndChar

StartChar: l
Encoding: 108 108 78
Width: 581
GlyphClass: 2
Flags: HW
LayerCount: 2
Fore
SplineSet
423 -23 m 0,0,1
 285 -23 285 -23 221 39.5 c 128,-1,2
 157 102 157 102 157 243 c 2,3,-1
 157 1522 l 1,4,-1
 279 1532 l 1,5,-1
 279 250 l 2,6,7
 279 150 279 150 315.5 112 c 128,-1,8
 352 74 352 74 419 74 c 0,9,10
 486 74 486 74 576 97 c 1,11,-1
 581 1 l 1,12,13
 483 -23 483 -23 423 -23 c 0,0,1
EndSplineSet
EndChar

StartChar: m
Encoding: 109 109 79
Width: 1805
GlyphClass: 2
Flags: HW
LayerCount: 2
Fore
SplineSet
150 0 m 1,0,1
 147 994 147 994 147 1096 c 1,2,-1
 255 1096 l 1,3,-1
 271 928 l 1,4,5
 319 1010 319 1010 414.5 1063 c 128,-1,6
 510 1116 510 1116 617 1116 c 0,7,8
 880 1116 880 1116 947 909 c 1,9,10
 1064 1116 1064 1116 1316 1116 c 0,11,12
 1496 1116 1496 1116 1580.5 1013.5 c 128,-1,13
 1665 911 1665 911 1665 708 c 2,14,-1
 1665 0 l 1,15,-1
 1541 0 l 1,16,-1
 1541 536 l 2,17,18
 1540 787 1540 787 1506 872 c 0,19,20
 1467 967 1467 967 1402 994 c 0,21,22
 1363 1010 1363 1010 1310 1010 c 0,23,24
 1184 1010 1184 1010 1096.5 935.5 c 128,-1,25
 1009 861 1009 861 975 726 c 1,26,27
 977 624 977 624 980 568 c 1,28,-1
 980 0 l 1,29,-1
 857 0 l 1,30,-1
 857 558 l 2,31,32
 858 828 858 828 792 926 c 0,33,34
 736 1010 736 1010 611 1010 c 128,-1,35
 486 1010 486 1010 394.5 937.5 c 128,-1,36
 303 865 303 865 276 740 c 1,37,38
 274 699 274 699 274 623 c 2,39,-1
 274 0 l 1,40,-1
 150 0 l 1,0,1
EndSplineSet
EndChar

StartChar: n
Encoding: 110 110 80
Width: 1152
GlyphClass: 2
Flags: HW
LayerCount: 2
Fore
SplineSet
147 0 m 1,0,-1
 147 1096 l 1,1,-1
 255 1096 l 1,2,-1
 272 927 l 1,3,4
 331 1015 331 1015 430.5 1065.5 c 128,-1,5
 530 1116 530 1116 645 1116 c 0,6,7
 834 1116 834 1116 923 1012 c 128,-1,8
 1012 908 1012 908 1012 680 c 2,9,-1
 1012 0 l 1,10,-1
 887 0 l 1,11,-1
 887 736 l 1,12,13
 882 882 882 882 825 946 c 128,-1,14
 768 1010 768 1010 628 1010 c 0,15,16
 488 1010 488 1010 394 935 c 128,-1,17
 300 860 300 860 276 741 c 1,18,19
 272 694 272 694 272 643 c 2,20,-1
 272 0 l 1,21,-1
 147 0 l 1,0,-1
EndSplineSet
EndChar

StartChar: o
Encoding: 111 111 81
Width: 1190
GlyphClass: 2
Flags: HW
LayerCount: 2
Fore
SplineSet
862 52 m 0,0,1
 747 -24 747 -24 595 -24 c 128,-1,2
 443 -24 443 -24 329.5 51 c 128,-1,3
 216 126 216 126 156.5 254.5 c 128,-1,4
 97 383 97 383 97 525 c 128,-1,5
 97 667 97 667 131.5 771.5 c 128,-1,6
 166 876 166 876 230 952 c 0,7,8
 367 1116 367 1116 600 1116 c 0,9,10
 754 1116 754 1116 867 1040 c 0,11,12
 1093 889 1093 889 1093 547 c 0,13,14
 1093 204 1093 204 862 52 c 0,0,1
601 75 m 0,15,16
 722 74 722 74 804 138 c 0,17,18
 962 259 962 259 961 545 c 0,19,20
 961 757 961 757 871 886 c 128,-1,21
 781 1015 781 1015 597 1015 c 0,22,23
 476 1014 476 1014 392 950 c 0,24,25
 230 826 230 826 230 542 c 0,26,27
 230 337 230 337 325.5 206 c 128,-1,28
 421 75 421 75 601 75 c 0,15,16
EndSplineSet
EndChar

StartChar: p
Encoding: 112 112 82
Width: 1175
GlyphClass: 2
Flags: HW
LayerCount: 2
Fore
SplineSet
449 112 m 0,0,1
 517 78 517 78 608 78 c 128,-1,2
 699 78 699 78 765 119 c 128,-1,3
 831 160 831 160 870 228 c 0,4,5
 948 364 948 364 948 544 c 128,-1,6
 948 724 948 724 872 860 c 0,7,8
 834 928 834 928 766.5 969.5 c 128,-1,9
 699 1011 699 1011 609.5 1011 c 128,-1,10
 520 1011 520 1011 452.5 977.5 c 0,11,12
 386 944 386 944 346 882 c 0,13,14
 270 763 270 763 270 563 c 0,15,16
 270 202 270 202 449 112 c 0,0,1
147 -488 m 1,17,-1
 147 1096 l 1,18,-1
 258 1096 l 1,19,-1
 269 940 l 1,20,21
 346 1028 346 1028 425.5 1072 c 128,-1,22
 505 1116 505 1116 611 1116 c 0,23,24
 845 1116 845 1116 961.5 960.5 c 128,-1,25
 1078 805 1078 805 1078 547 c 128,-1,26
 1078 289 1078 289 955 132.5 c 128,-1,27
 832 -24 832 -24 622 -24 c 0,28,29
 514 -24 514 -24 418 27 c 128,-1,30
 322 78 322 78 266 161 c 1,31,32
 271 38 271 38 271 -81 c 2,33,-1
 271 -479 l 1,34,-1
 147 -488 l 1,17,-1
EndSplineSet
EndChar

StartChar: q
Encoding: 113 113 83
Width: 1179
GlyphClass: 2
Flags: HW
LayerCount: 2
Fore
SplineSet
554 84 m 0,0,1
 900 84 900 84 905 525 c 1,2,3
 905 880 905 880 719 974 c 0,4,5
 650 1008 650 1008 566 1008.5 c 128,-1,6
 482 1009 482 1009 425.5 982 c 128,-1,7
 369 955 369 955 333 910 c 0,8,9
 296 865 296 865 272 804 c 0,10,11
 228 693 228 693 228 572 c 128,-1,12
 228 451 228 451 245 372 c 0,13,14
 262 292 262 292 298 226 c 0,15,16
 376 84 376 84 554 84 c 0,0,1
908 -488 m 1,17,-1
 908 13 l 2,18,19
 908 97 908 97 913 165 c 1,20,21
 855 72 855 72 754.5 24 c 128,-1,22
 654 -24 654 -24 532 -24 c 128,-1,23
 410 -24 410 -24 305 49 c 0,24,25
 97 194 97 194 97 532 c 0,26,27
 96 892 96 892 306 1040 c 0,28,29
 412 1116 412 1116 562 1116 c 0,30,31
 767 1116 767 1116 913 931 c 1,32,-1
 921 1096 l 1,33,-1
 1032 1096 l 1,34,-1
 1032 -481 l 1,35,-1
 908 -488 l 1,17,-1
EndSplineSet
EndChar

StartChar: r
Encoding: 114 114 84
Width: 715
GlyphClass: 2
Flags: HW
LayerCount: 2
Fore
SplineSet
149 0 m 1,0,1
 147 965 147 965 147 1096 c 1,2,-1
 249 1096 l 1,3,-1
 257 880 l 1,4,5
 316 978 316 978 407 1040 c 128,-1,6
 498 1102 498 1102 597 1102 c 0,7,8
 638 1102 638 1102 685 1095 c 1,9,-1
 676 992 l 1,10,11
 640 998 640 998 600 998 c 0,12,13
 461 998 461 998 366.5 888.5 c 128,-1,14
 272 779 272 779 272 629 c 2,15,-1
 272 0 l 1,16,-1
 149 0 l 1,0,1
EndSplineSet
EndChar

StartChar: s
Encoding: 115 115 85
Width: 944
GlyphClass: 2
Flags: HW
LayerCount: 2
Fore
SplineSet
467 -25 m 0,0,1
 361 -25 361 -25 268 1 c 128,-1,2
 175 27 175 27 121 63 c 1,3,-1
 139 167 l 1,4,5
 304 81 304 81 455 81 c 0,6,7
 726 81 726 81 736 282 c 1,8,9
 736 366 736 366 681.5 414 c 128,-1,10
 627 462 627 462 463 514 c 1,11,12
 377 544 377 544 368 547 c 0,13,14
 111 625 111 625 109 824 c 1,15,16
 109 939 109 939 210.5 1027.5 c 128,-1,17
 312 1116 312 1116 485 1116 c 128,-1,18
 658 1116 658 1116 810 1048 c 1,19,-1
 768 956 l 1,20,21
 614 1014 614 1014 490 1014 c 128,-1,22
 366 1014 366 1014 299.5 962 c 128,-1,23
 233 910 233 910 233 829 c 128,-1,24
 233 748 233 748 276.5 708.5 c 128,-1,25
 320 669 320 669 449 633 c 0,26,27
 463 629 463 629 500.5 615 c 128,-1,28
 538 601 538 601 542 600 c 0,29,30
 716 546 716 546 784 474 c 0,31,32
 851 403 851 403 851 273 c 0,33,34
 850 270 850 270 850 268 c 0,35,36
 848 134 848 134 744 54.5 c 128,-1,37
 640 -25 640 -25 467 -25 c 0,0,1
EndSplineSet
EndChar

StartChar: t
Encoding: 116 116 86
Width: 676
GlyphClass: 2
Flags: HW
LayerCount: 2
Fore
SplineSet
456 -23 m 0,0,1
 318 -23 318 -23 254 39.5 c 128,-1,2
 190 102 190 102 190 243 c 2,3,-1
 190 1005 l 1,4,-1
 35 1005 l 1,5,-1
 44 1080 l 1,6,-1
 192 1094 l 1,7,-1
 225 1345 l 1,8,-1
 312 1351 l 1,9,-1
 312 1096 l 1,10,-1
 632 1096 l 1,11,-1
 632 1005 l 1,12,-1
 312 1005 l 1,13,-1
 312 269 l 2,14,15
 312 153 312 153 350 113.5 c 128,-1,16
 388 74 388 74 467 74 c 0,17,18
 546 74 546 74 638 97 c 1,19,-1
 643 1 l 1,20,21
 522 -23 522 -23 456 -23 c 0,0,1
EndSplineSet
EndChar

StartChar: u
Encoding: 117 117 87
Width: 1106
GlyphClass: 2
Flags: HW
LayerCount: 2
Fore
SplineSet
546 -27 m 1,0,1
 469 -27 469 -27 395.5 -7.5 c 128,-1,2
 322 12 322 12 259 54 c 0,3,4
 123 144 123 144 123 350 c 2,5,-1
 123 1096 l 1,6,-1
 247 1096 l 1,7,-1
 247 347 l 2,8,9
 247 190 247 190 340 134 c 0,10,11
 421 84 421 84 555 84 c 1,12,13
 778 84 778 84 836 216 c 0,14,15
 860 270 860 270 859 347 c 2,16,-1
 859 1096 l 1,17,-1
 983 1096 l 1,18,-1
 983 350 l 2,19,20
 982 112 982 112 798 22 c 0,21,22
 696 -28 696 -28 546 -27 c 1,0,1
EndSplineSet
EndChar

StartChar: v
Encoding: 118 118 88
Width: 989
GlyphClass: 2
Flags: HW
LayerCount: 2
Fore
SplineSet
419 0 m 1,0,-1
 1 1096 l 1,1,-1
 134 1096 l 1,2,-1
 388 405 l 1,3,4
 425 284 425 284 480 152 c 2,5,-1
 497 111 l 1,6,7
 516 175 516 175 546.5 248.5 c 128,-1,8
 577 322 577 322 603 405 c 128,-1,9
 629 488 629 488 700 661.5 c 128,-1,10
 771 835 771 835 855 1096 c 1,11,-1
 988 1096 l 1,12,-1
 563 0 l 1,13,-1
 419 0 l 1,0,-1
EndSplineSet
EndChar

StartChar: w
Encoding: 119 119 89
Width: 1557
GlyphClass: 2
Flags: HW
LayerCount: 2
Fore
SplineSet
328 0 m 1,0,-1
 22 1096 l 1,1,-1
 152 1096 l 1,2,-1
 405 117 l 1,3,4
 678 995 678 995 710 1096 c 1,5,-1
 862 1096 l 1,6,7
 1161 120 1161 120 1164 120 c 1,8,-1
 1406 1096 l 1,9,-1
 1535 1096 l 1,10,-1
 1234 0 l 1,11,-1
 1090 0 l 1,12,13
 1087 -1 1087 -1 949 461 c 128,-1,14
 811 923 811 923 789 1004 c 1,15,16
 767 906 767 906 620 452.5 c 128,-1,17
 473 -1 473 -1 472 0 c 1,18,-1
 328 0 l 1,0,-1
EndSplineSet
EndChar

StartChar: x
Encoding: 120 120 90
Width: 1012
GlyphClass: 2
Flags: HW
LayerCount: 2
Fore
SplineSet
37 0 m 1,0,-1
 446 555 l 1,1,-1
 50 1096 l 1,2,-1
 188 1096 l 1,3,-1
 508 644 l 1,4,-1
 826 1096 l 1,5,-1
 967 1096 l 1,6,-1
 572 551 l 1,7,-1
 975 0 l 1,8,-1
 842 0 l 1,9,-1
 509 465 l 1,10,-1
 177 0 l 1,11,-1
 37 0 l 1,0,-1
EndSplineSet
EndChar

StartChar: y
Encoding: 121 121 91
Width: 981
GlyphClass: 2
Flags: HW
LayerCount: 2
Fore
SplineSet
4 -410 m 1,0,-1
 73 -413 l 1,1,2
 199 -413 199 -413 262 -370 c 128,-1,3
 325 -327 325 -327 374 -202 c 0,4,5
 380 -185 380 -185 405.5 -116 c 128,-1,6
 431 -47 431 -47 445 -7 c 1,7,-1
 7 1096 l 1,8,-1
 137 1096 l 1,9,-1
 510 110 l 1,10,-1
 555 248 l 1,11,12
 830 1106 830 1106 837 1106 c 0,13,14
 838 1106 838 1106 836 1096 c 1,15,-1
 966 1096 l 1,16,17
 528 -135 528 -135 508 -192 c 1,18,19
 439 -358 439 -358 346 -439 c 128,-1,20
 253 -520 253 -520 98 -520 c 0,21,22
 56 -520 56 -520 13 -512 c 1,23,-1
 4 -410 l 1,0,-1
EndSplineSet
EndChar

StartChar: z
Encoding: 122 122 92
Width: 882
GlyphClass: 2
Flags: HW
LayerCount: 2
Fore
SplineSet
89 0 m 1,0,-1
 89 104 l 1,1,-1
 668 997 l 1,2,-1
 99 997 l 1,3,-1
 99 1096 l 1,4,-1
 798 1096 l 1,5,-1
 798 979 l 1,6,-1
 217 93 l 1,7,-1
 816 93 l 1,8,-1
 816 0 l 1,9,-1
 89 0 l 1,0,-1
EndSplineSet
EndChar

StartChar: braceleft
Encoding: 123 123 93
Width: 709
GlyphClass: 2
Flags: HW
LayerCount: 2
Fore
SplineSet
613 -277 m 1,0,1
 443 -276 443 -276 368.5 -181 c 128,-1,2
 294 -86 294 -86 294 95 c 2,3,-1
 294 255 l 2,4,5
 294 458 294 458 241 525 c 0,6,7
 190 590 190 590 86 590 c 1,8,-1
 86 689 l 1,9,10
 218 694 218 694 260 756 c 0,11,12
 282 788 282 788 286 820.5 c 128,-1,13
 290 853 290 853 292 878.5 c 128,-1,14
 294 904 294 904 294 932 c 2,15,-1
 294 1236 l 2,16,17
 294 1384 294 1384 378 1470.5 c 128,-1,18
 462 1557 462 1557 613 1557 c 1,19,-1
 613 1461 l 1,20,21
 503 1460 503 1460 461.5 1400.5 c 128,-1,22
 420 1341 420 1341 420 1197 c 2,23,-1
 420 934 l 2,24,25
 420 769 420 769 247 637 c 1,26,27
 376 585 376 585 411 426 c 0,28,29
 420 385 420 385 420 342 c 2,30,-1
 420 82 l 2,31,32
 420 -65 420 -65 461.5 -122.5 c 128,-1,33
 503 -180 503 -180 613 -181 c 1,34,-1
 613 -277 l 1,0,1
EndSplineSet
EndChar

StartChar: bar
Encoding: 124 124 94
Width: 817
GlyphClass: 2
Flags: HW
LayerCount: 2
Fore
SplineSet
349 -413 m 1,0,-1
 349 1606 l 1,1,-1
 468 1606 l 1,2,-1
 468 -413 l 1,3,-1
 349 -413 l 1,0,-1
EndSplineSet
EndChar

StartChar: braceright
Encoding: 125 125 95
Width: 716
GlyphClass: 2
Flags: HW
LayerCount: 2
Fore
SplineSet
99 -277 m 1,0,-1
 99 -181 l 1,1,2
 208 -180 208 -180 250.5 -122 c 128,-1,3
 293 -64 293 -64 293 82 c 2,4,-1
 293 342 l 2,5,6
 293 431 293 431 326.5 491 c 128,-1,7
 360 551 360 551 464 646 c 1,8,9
 334 686 334 686 302 850 c 0,10,11
 294 892 294 892 293 934 c 2,12,-1
 293 1197 l 2,13,14
 293 1340 293 1340 250.5 1400 c 128,-1,15
 208 1460 208 1460 99 1461 c 1,16,-1
 99 1557 l 1,17,18
 418 1557 418 1557 418 1184 c 2,19,-1
 418 1025 l 2,20,21
 418 849 418 849 449 789 c 0,22,23
 484 722 484 722 544 702 c 0,24,25
 580 690 580 690 628 689 c 1,26,-1
 628 590 l 1,27,28
 473 590 473 590 437 449 c 0,29,30
 418 375 418 375 418 255 c 2,31,-1
 418 42 l 2,32,33
 418 -104 418 -104 335.5 -190 c 128,-1,34
 253 -276 253 -276 99 -277 c 1,0,-1
EndSplineSet
EndChar

StartChar: asciitilde
Encoding: 126 126 96
Width: 1236
GlyphClass: 2
Flags: HW
LayerCount: 2
Fore
SplineSet
156 524 m 1,0,-1
 116 603 l 1,1,2
 151 693 151 693 219 748 c 128,-1,3
 287 803 287 803 361.5 803 c 128,-1,4
 436 803 436 803 485.5 788.5 c 128,-1,5
 535 774 535 774 586 750.5 c 128,-1,6
 637 727 637 727 674.5 709 c 128,-1,7
 712 691 712 691 731 683 c 0,8,9
 750 674 750 674 777 664 c 0,10,11
 846 645 846 645 874 645 c 1,12,13
 920 645 920 645 976.5 696.5 c 128,-1,14
 1033 748 1033 748 1057 814 c 1,15,-1
 1106 744 l 1,16,17
 1068 638 1068 638 1010 587.5 c 128,-1,18
 952 537 952 537 864.5 537 c 128,-1,19
 777 537 777 537 670.5 585.5 c 128,-1,20
 564 634 564 634 532 648 c 0,21,22
 437 692 437 692 375 692 c 128,-1,23
 313 692 313 692 253 644.5 c 128,-1,24
 193 597 193 597 156 524 c 1,0,-1
EndSplineSet
EndChar

StartChar: exclamdown
Encoding: 161 161 97
Width: 650
GlyphClass: 2
Flags: HW
LayerCount: 2
Fore
SplineSet
417.5 927 m 128,-1,1
 386 892 386 892 334.5 892 c 128,-1,2
 283 892 283 892 254 910 c 0,3,4
 202 942 202 942 202 1009 c 0,5,6
 202 1053 202 1053 222 1079 c 0,7,8
 259 1127 259 1127 325 1127 c 0,9,10
 406 1128 406 1128 436 1064 c 0,11,12
 448 1038 448 1038 448.5 1000 c 128,-1,0
 449 962 449 962 417.5 927 c 128,-1,1
235 -402 m 1,13,-1
 235 -312 l 1,14,-1
 285 694 l 1,15,-1
 351 694 l 1,16,-1
 412 -312 l 1,17,-1
 412 -402 l 1,18,-1
 235 -402 l 1,13,-1
EndSplineSet
EndChar

StartChar: cent
Encoding: 162 162 98
Width: 985
GlyphClass: 2
Flags: HW
LayerCount: 2
Fore
SplineSet
567 77 m 1,0,-1
 567 1022 l 1,1,2
 424 1002 424 1002 327 858 c 0,3,4
 233 718 233 718 233 535 c 0,5,6
 233 422 233 422 273.5 323.5 c 128,-1,7
 314 225 314 225 391 158.5 c 128,-1,8
 468 92 468 92 567 77 c 1,0,-1
908 73 m 1,9,10
 821 -14 821 -14 644 -28 c 1,11,-1
 644 -162 l 1,12,-1
 567 -162 l 1,13,-1
 567 -28 l 1,14,15
 304 -2 304 -2 172 240 c 0,16,17
 96 379 96 379 97 537 c 1,18,19
 100 794 100 794 268 976 c 0,20,21
 389 1108 389 1108 567 1126 c 1,22,-1
 567 1281 l 1,23,-1
 644 1281 l 1,24,-1
 644 1127 l 1,25,26
 828 1118 828 1118 911 1033 c 1,27,-1
 870 950 l 1,28,29
 774 1014 774 1014 644 1023 c 1,30,-1
 644 75 l 1,31,32
 765 87 765 87 870 156 c 1,33,-1
 908 73 l 1,9,10
EndSplineSet
EndChar

StartChar: sterling
Encoding: 163 163 99
Width: 1124
GlyphClass: 2
Flags: HW
LayerCount: 2
Fore
SplineSet
101 0 m 1,0,-1
 92 105 l 1,1,2
 277 169 277 169 277 436 c 2,3,-1
 277 696 l 1,4,-1
 91 696 l 1,5,-1
 91 800 l 1,6,-1
 277 800 l 1,7,-1
 277 890 l 2,8,9
 277 1128 277 1128 324 1262 c 0,10,11
 366 1381 366 1381 448 1444 c 0,12,13
 542 1515 542 1515 693 1515 c 0,14,15
 889 1515 889 1515 1037 1390 c 1,16,-1
 971 1303 l 1,17,18
 841 1407 841 1407 687 1407 c 128,-1,19
 533 1407 533 1407 469 1296.5 c 128,-1,20
 405 1186 405 1186 405 977 c 2,21,-1
 405 800 l 1,22,-1
 832 800 l 1,23,-1
 832 695 l 1,24,-1
 405 695 l 1,25,-1
 405 526 l 2,26,27
 406 320 406 320 368 232 c 0,28,29
 332 147 332 147 257 96 c 1,30,31
 307 99 307 99 376.5 106.5 c 128,-1,32
 446 114 446 114 516 114 c 2,33,-1
 1041 114 l 1,34,-1
 1055 0 l 1,35,-1
 101 0 l 1,0,-1
EndSplineSet
EndChar

StartChar: currency
Encoding: 164 164 100
Width: 1146
GlyphClass: 2
Flags: HW
LayerCount: 2
Fore
SplineSet
346 498.5 m 128,-1,1
 440 402 440 402 573.5 402 c 128,-1,2
 707 402 707 402 801.5 499 c 128,-1,3
 896 596 896 596 896 732 c 128,-1,4
 896 868 896 868 801.5 965.5 c 128,-1,5
 707 1063 707 1063 573.5 1063 c 128,-1,6
 440 1063 440 1063 346 966 c 128,-1,7
 252 869 252 869 252 732 c 128,-1,0
 252 595 252 595 346 498.5 c 128,-1,1
1027 234 m 1,8,-1
 840 412 l 1,9,10
 723 314 723 314 571 314 c 128,-1,11
 419 314 419 314 306 412 c 1,12,-1
 121 235 l 1,13,-1
 58 294 l 1,14,-1
 243 474 l 1,15,16
 157 590 157 590 157 731 c 128,-1,17
 157 872 157 872 243 989 c 1,18,-1
 57 1171 l 1,19,-1
 121 1230 l 1,20,-1
 306 1053 l 1,21,22
 419 1151 419 1151 572 1151 c 128,-1,23
 725 1151 725 1151 840 1053 c 1,24,-1
 1027 1230 l 1,25,-1
 1088 1168 l 1,26,-1
 904 989 l 1,27,28
 990 865 990 865 990 725 c 128,-1,29
 990 585 990 585 905 474 c 1,30,-1
 1087 295 l 1,31,-1
 1027 234 l 1,8,-1
EndSplineSet
EndChar

StartChar: yen
Encoding: 165 165 101
Width: 1166
GlyphClass: 2
Flags: HW
LayerCount: 2
Fore
SplineSet
501 0 m 1,0,-1
 501 338 l 1,1,-1
 96 338 l 1,2,-1
 96 448 l 1,3,-1
 501 448 l 1,4,-1
 501 629 l 1,5,-1
 95 629 l 1,6,-1
 95 741 l 1,7,-1
 430 741 l 1,8,-1
 5 1488 l 1,9,-1
 144 1488 l 1,10,-1
 575 705 l 1,11,-1
 1020 1488 l 1,12,-1
 1161 1488 l 1,13,-1
 719 741 l 1,14,-1
 1037 741 l 1,15,-1
 1037 629 l 1,16,-1
 632 629 l 1,17,-1
 632 448 l 1,18,-1
 1036 448 l 1,19,-1
 1036 338 l 1,20,-1
 632 338 l 1,21,-1
 632 0 l 1,22,-1
 501 0 l 1,0,-1
EndSplineSet
EndChar

StartChar: brokenbar
Encoding: 166 166 102
Width: 775
GlyphClass: 2
Flags: HW
LayerCount: 2
Fore
SplineSet
329 850 m 1,0,-1
 329 1549 l 1,1,-1
 449 1549 l 1,2,-1
 449 850 l 1,3,-1
 329 850 l 1,0,-1
329 -200 m 1,4,-1
 329 502 l 1,5,-1
 449 502 l 1,6,-1
 449 -200 l 1,7,-1
 329 -200 l 1,4,-1
EndSplineSet
EndChar

StartChar: dieresis
Encoding: 168 168 103
Width: 769
GlyphClass: 2
Flags: HW
LayerCount: 2
Fore
SplineSet
512 1266 m 1,0,-1
 512 1443 l 1,1,-1
 649 1443 l 1,2,-1
 649 1266 l 1,3,-1
 512 1266 l 1,0,-1
136 1266 m 1,4,-1
 136 1443 l 1,5,-1
 272 1443 l 1,6,-1
 272 1266 l 1,7,-1
 136 1266 l 1,4,-1
EndSplineSet
EndChar

StartChar: copyright
Encoding: 169 169 104
Width: 1886
GlyphClass: 2
Flags: HW
LayerCount: 2
Fore
SplineSet
1161.5 -84 m 128,-1,1
 1046 -116 1046 -116 924.5 -116 c 128,-1,2
 803 -116 803 -116 688.5 -84 c 128,-1,3
 574 -52 574 -52 472 14.5 c 128,-1,4
 370 81 370 81 294 175.5 c 128,-1,5
 218 270 218 270 173.5 405 c 128,-1,6
 129 540 129 540 129 699 c 128,-1,7
 129 858 129 858 173 993 c 128,-1,8
 217 1128 217 1128 292.5 1222.5 c 128,-1,9
 368 1317 368 1317 469 1384 c 0,10,11
 665 1514 665 1514 918 1514 c 0,12,13
 1172 1514 1172 1514 1376 1382 c 0,14,15
 1596 1240 1596 1240 1680 990 c 0,16,17
 1726 856 1726 856 1726 698 c 128,-1,18
 1726 540 1726 540 1681 406 c 128,-1,19
 1636 272 1636 272 1559 177 c 128,-1,20
 1482 82 1482 82 1379.5 15 c 128,-1,0
 1277 -52 1277 -52 1161.5 -84 c 128,-1,1
757 -4 m 0,21,22
 840 -24 840 -24 936 -24 c 128,-1,23
 1032 -24 1032 -24 1131 4.5 c 128,-1,24
 1230 33 1230 33 1318 92 c 0,25,26
 1406 150 1406 150 1472 234 c 0,27,28
 1614 414 1614 414 1614 694 c 0,29,30
 1614 1100 1614 1100 1311 1306 c 0,31,32
 1137 1424 1137 1424 915 1424 c 0,33,34
 700 1424 700 1424 532 1309 c 0,35,36
 242 1111 242 1111 241 701 c 0,37,38
 242 363 242 363 456 157 c 0,39,40
 576 41 576 41 757 -4 c 0,21,22
919 174 m 128,-1,42
 848 174 848 174 773.5 200 c 128,-1,43
 699 226 699 226 640 274 c 128,-1,44
 581 322 581 322 538 388 c 0,45,46
 450 522 450 522 450 691.5 c 128,-1,47
 450 861 450 861 510.5 981 c 128,-1,48
 571 1101 571 1101 684 1169 c 128,-1,49
 797 1237 797 1237 958.5 1237 c 128,-1,50
 1120 1237 1120 1237 1254 1142 c 1,51,-1
 1230 1032 l 1,52,53
 1186 1073 1186 1073 1103 1101.5 c 128,-1,54
 1020 1130 1020 1130 944.5 1130 c 128,-1,55
 869 1130 869 1130 809 1107.5 c 128,-1,56
 749 1085 749 1085 707.5 1046 c 0,57,58
 666 1008 666 1008 637 954 c 0,59,60
 582 853 582 853 582 737 c 128,-1,61
 582 621 582 621 605 543 c 0,62,63
 628 466 628 466 673 406 c 0,64,65
 768 281 768 281 960 280 c 0,66,67
 1064 280 1064 280 1174 332 c 0,68,69
 1204 346 1204 346 1222 359 c 1,70,-1
 1258 257 l 1,71,72
 1183 211 1183 211 1086.5 192.5 c 128,-1,41
 990 174 990 174 919 174 c 128,-1,42
EndSplineSet
EndChar

StartChar: ordfeminine
Encoding: 170 170 105
Width: 830
GlyphClass: 2
Flags: HW
LayerCount: 2
Fore
SplineSet
144 720 m 1,0,-1
 144 798 l 1,1,-1
 682 798 l 1,2,-1
 682 720 l 1,3,-1
 144 720 l 1,0,-1
363 968 m 2,4,-1
 369 968 l 1,5,6
 459 970 459 970 511 1036.5 c 128,-1,7
 563 1103 563 1103 563 1217 c 2,8,-1
 563 1256 l 1,9,10
 444 1249 444 1249 403.5 1238.5 c 128,-1,11
 363 1228 363 1228 330 1216 c 0,12,13
 296 1204 296 1204 278 1189 c 0,14,15
 232 1151 232 1151 232 1101 c 2,16,-1
 232 1098 l 1,17,18
 235 968 235 968 363 968 c 2,4,-1
486.5 921.5 m 128,-1,20
 429 892 429 892 367 892 c 128,-1,21
 305 892 305 892 255.5 912 c 128,-1,22
 206 932 206 932 169.5 978 c 128,-1,23
 133 1024 133 1024 133 1082.5 c 128,-1,24
 133 1141 133 1141 155.5 1180 c 128,-1,25
 178 1219 178 1219 213 1243 c 0,26,27
 248 1266 248 1266 307 1284 c 0,28,29
 401 1312 401 1312 560 1326 c 1,30,-1
 560 1349 l 2,31,32
 560 1449 560 1449 529.5 1498 c 128,-1,33
 499 1547 499 1547 431.5 1547 c 128,-1,34
 364 1547 364 1547 291 1528 c 128,-1,35
 218 1509 218 1509 178 1481 c 1,36,-1
 141 1554 l 1,37,38
 259 1624 259 1624 428 1624 c 0,39,40
 529 1624 529 1624 592.5 1564 c 128,-1,41
 656 1504 656 1504 656 1371 c 2,42,-1
 656 902 l 1,43,-1
 595 902 l 1,44,-1
 572 1010 l 1,45,19
 544 951 544 951 486.5 921.5 c 128,-1,20
EndSplineSet
EndChar

StartChar: guillemotleft
Encoding: 171 171 106
Width: 962
GlyphClass: 2
Flags: HW
LayerCount: 2
Fore
SplineSet
752 157 m 1,0,-1
 460 573 l 1,1,-1
 754 959 l 1,2,-1
 849 935 l 1,3,-1
 597 561 l 1,4,-1
 846 182 l 1,5,-1
 752 157 l 1,0,-1
391 157 m 1,6,-1
 141 503 l 1,7,-1
 107 553 l 1,8,-1
 394 959 l 1,9,-1
 508 935 l 1,10,-1
 237 561 l 1,11,-1
 503 182 l 1,12,-1
 391 157 l 1,6,-1
EndSplineSet
EndChar

StartChar: logicalnot
Encoding: 172 172 107
Width: 1197
GlyphClass: 2
Flags: HW
LayerCount: 2
Fore
SplineSet
967 268 m 1,0,-1
 967 707 l 1,1,-1
 99 707 l 1,2,-1
 99 817 l 1,3,-1
 1076 817 l 1,4,-1
 1076 268 l 1,5,-1
 967 268 l 1,0,-1
EndSplineSet
EndChar

StartChar: uni00AD
Encoding: 173 173 108
Width: 1038
GlyphClass: 2
Flags: HW
LayerCount: 2
Fore
SplineSet
123 140 m 1,0,-1
 123 255 l 1,1,-1
 922 255 l 1,2,-1
 922 140 l 1,3,-1
 123 140 l 1,0,-1
EndSplineSet
EndChar

StartChar: registered
Encoding: 174 174 109
Width: 1865
GlyphClass: 2
Flags: HW
LayerCount: 2
Fore
SplineSet
1161.5 -84 m 128,-1,1
 1046 -116 1046 -116 924.5 -116 c 128,-1,2
 803 -116 803 -116 688.5 -84 c 128,-1,3
 574 -52 574 -52 472 14.5 c 128,-1,4
 370 81 370 81 294 175.5 c 128,-1,5
 218 270 218 270 173.5 405 c 128,-1,6
 129 540 129 540 129 699 c 128,-1,7
 129 858 129 858 173 993 c 128,-1,8
 217 1128 217 1128 292.5 1222.5 c 128,-1,9
 368 1317 368 1317 469 1384 c 0,10,11
 665 1514 665 1514 918 1514 c 0,12,13
 1172 1514 1172 1514 1376 1382 c 0,14,15
 1596 1240 1596 1240 1680 990 c 0,16,17
 1726 856 1726 856 1726 698 c 128,-1,18
 1726 540 1726 540 1681 406 c 128,-1,19
 1636 272 1636 272 1559 177 c 128,-1,20
 1482 82 1482 82 1379.5 15 c 128,-1,0
 1277 -52 1277 -52 1161.5 -84 c 128,-1,1
757 -4 m 0,21,22
 840 -24 840 -24 936 -24 c 128,-1,23
 1032 -24 1032 -24 1131 4.5 c 128,-1,24
 1230 33 1230 33 1318 92 c 0,25,26
 1406 150 1406 150 1472 234 c 0,27,28
 1614 414 1614 414 1614 694 c 0,29,30
 1614 1100 1614 1100 1311 1306 c 0,31,32
 1137 1424 1137 1424 915 1424 c 0,33,34
 700 1424 700 1424 532 1309 c 0,35,36
 242 1111 242 1111 241 701 c 0,37,38
 242 363 242 363 456 157 c 0,39,40
 576 41 576 41 757 -4 c 0,21,22
736 754 m 1,41,-1
 941 754 l 2,42,43
 1071 754 1071 754 1130.5 790.5 c 128,-1,44
 1190 827 1190 827 1190 930.5 c 128,-1,45
 1190 1034 1190 1034 1134 1070.5 c 128,-1,46
 1078 1107 1078 1107 931 1107 c 2,47,-1
 736 1107 l 1,48,-1
 736 754 l 1,41,-1
623 212 m 1,49,-1
 623 1202 l 1,50,-1
 966 1202 l 2,51,52
 1138 1202 1138 1202 1220 1132.5 c 128,-1,53
 1302 1063 1302 1063 1302 936 c 0,54,55
 1302 846 1302 846 1250 772 c 0,56,57
 1193 690 1193 690 1058 678 c 1,58,59
 1107 611 1107 611 1211.5 438.5 c 128,-1,60
 1316 266 1316 266 1349 212 c 1,61,-1
 1214 212 l 1,62,63
 1021 544 1021 544 941 658 c 1,64,-1
 735 658 l 1,65,-1
 735 212 l 1,66,-1
 623 212 l 1,49,-1
EndSplineSet
EndChar

StartChar: macron
Encoding: 175 175 110
Width: 1131
GlyphClass: 2
Flags: HW
LayerCount: 2
Fore
SplineSet
256 1270 m 1,0,-1
 256 1376 l 1,1,-1
 874 1376 l 1,2,-1
 874 1270 l 1,3,-1
 256 1270 l 1,0,-1
EndSplineSet
EndChar

StartChar: degree
Encoding: 176 176 111
Width: 844
GlyphClass: 2
Flags: HW
LayerCount: 2
Fore
SplineSet
418 932 m 0,0,1
 358 932 358 932 304.5 951 c 128,-1,2
 251 970 251 970 207.5 1006 c 128,-1,3
 164 1042 164 1042 138 1100 c 128,-1,4
 112 1158 112 1158 112 1231 c 128,-1,5
 112 1304 112 1304 138.5 1363 c 128,-1,6
 165 1422 165 1422 209.5 1458 c 128,-1,7
 254 1494 254 1494 308.5 1513.5 c 128,-1,8
 363 1533 363 1533 422.5 1533 c 128,-1,9
 482 1533 482 1533 536.5 1514 c 0,10,11
 591 1494 591 1494 635 1458 c 0,12,13
 732 1378 732 1378 732 1231 c 0,14,15
 732 1087 732 1087 634 1007 c 0,16,17
 540 932 540 932 418 932 c 0,0,1
422.5 1011 m 128,-1,19
 462 1011 462 1011 498 1025 c 0,20,21
 534 1040 534 1040 563 1066 c 0,22,23
 627 1124 627 1124 627 1231 c 0,24,25
 628 1388 628 1388 498 1440 c 0,26,27
 462 1454 462 1454 415.5 1454 c 128,-1,28
 369 1454 369 1454 324 1430 c 128,-1,29
 279 1406 279 1406 249 1354 c 128,-1,30
 219 1302 219 1302 219 1240 c 128,-1,31
 219 1178 219 1178 236.5 1135 c 128,-1,32
 254 1092 254 1092 283 1065.5 c 128,-1,33
 312 1039 312 1039 347.5 1025 c 128,-1,18
 383 1011 383 1011 422.5 1011 c 128,-1,19
EndSplineSet
EndChar

StartChar: plusminus
Encoding: 177 177 112
Width: 1163
GlyphClass: 2
Flags: HW
LayerCount: 2
Fore
SplineSet
95 0 m 1,0,-1
 95 121 l 1,1,-1
 1070 121 l 1,2,-1
 1070 0 l 1,3,-1
 95 0 l 1,0,-1
526 215 m 1,4,-1
 526 654 l 1,5,-1
 95 654 l 1,6,-1
 95 765 l 1,7,-1
 525 765 l 1,8,-1
 525 1213 l 1,9,-1
 632 1213 l 1,10,-1
 632 765 l 1,11,-1
 1067 765 l 1,12,-1
 1067 654 l 1,13,-1
 635 654 l 1,14,-1
 635 215 l 1,15,-1
 526 215 l 1,4,-1
EndSplineSet
EndChar

StartChar: acute
Encoding: 180 180 113
Width: 648
GlyphClass: 2
Flags: HW
LayerCount: 2
Fore
SplineSet
126 1287 m 1,0,-1
 320 1674 l 1,1,-1
 474 1674 l 1,2,-1
 201 1287 l 1,3,-1
 126 1287 l 1,0,-1
EndSplineSet
EndChar

StartChar: paragraph
Encoding: 182 182 114
Width: 1007
GlyphClass: 2
Flags: HW
LayerCount: 2
Fore
SplineSet
495 0 m 1,0,1
 493 863 493 863 492 863 c 0,2,3
 290 863 290 863 173 982 c 1,4,5
 81 1077 81 1077 81 1201 c 0,6,7
 82 1351 82 1351 212 1441 c 0,8,9
 318 1514 318 1514 488 1514 c 2,10,-1
 926 1514 l 1,11,-1
 926 1417 l 1,12,-1
 854 1417 l 1,13,-1
 854 0 l 1,14,-1
 762 0 l 1,15,-1
 762 1417 l 1,16,-1
 589 1417 l 1,17,-1
 589 0 l 1,18,-1
 495 0 l 1,0,1
EndSplineSet
EndChar

StartChar: periodcentered
Encoding: 183 183 115
Width: 489
GlyphClass: 2
Flags: HW
LayerCount: 2
Fore
SplineSet
170 610 m 1,0,-1
 170 772 l 1,1,-1
 320 772 l 1,2,-1
 320 610 l 1,3,-1
 170 610 l 1,0,-1
EndSplineSet
EndChar

StartChar: cedilla
Encoding: 184 184 116
Width: 599
GlyphClass: 2
Flags: HW
LayerCount: 2
Fore
SplineSet
138 -410 m 1,0,-1
 245 11 l 1,1,-1
 304 11 l 1,2,-1
 267 -410 l 1,3,-1
 138 -410 l 1,0,-1
EndSplineSet
EndChar

StartChar: uni00B9
Encoding: 185 185 117
Width: 656
GlyphClass: 2
Flags: HW
LayerCount: 2
Fore
SplineSet
181 681 m 1,0,-1
 181 747 l 1,1,-1
 285 747 l 1,2,-1
 285 1416 l 1,3,4
 256 1394 256 1394 171 1344 c 1,5,-1
 171 1425 l 1,6,7
 265 1479 265 1479 293 1514 c 1,8,-1
 378 1514 l 1,9,-1
 378 747 l 1,10,-1
 485 747 l 1,11,-1
 485 681 l 1,12,-1
 181 681 l 1,0,-1
EndSplineSet
EndChar

StartChar: guillemotright
Encoding: 187 187 118
Width: 941
GlyphClass: 2
Flags: HW
LayerCount: 2
Fore
SplineSet
564 157 m 1,0,-1
 455 182 l 1,1,-1
 721 562 l 1,2,-1
 460 935 l 1,3,-1
 567 959 l 1,4,-1
 844 547 l 1,5,-1
 564 157 l 1,0,-1
192 157 m 1,6,-1
 97 182 l 1,7,-1
 349 562 l 1,8,-1
 99 935 l 1,9,-1
 192 959 l 1,10,-1
 486 547 l 1,11,-1
 192 157 l 1,6,-1
EndSplineSet
EndChar

StartChar: onequarter
Encoding: 188 188 119
Width: 1553
GlyphClass: 2
Flags: HW
LayerCount: 2
Fore
SplineSet
995 300 m 1,0,-1
 1270 300 l 1,1,2
 1270 492 1270 492 1270 599 c 128,-1,3
 1270 706 1270 706 1270 727 c 1,4,-1
 995 300 l 1,0,-1
281 0 m 1,5,-1
 1169 1514 l 1,6,-1
 1262 1514 l 1,7,-1
 381 0 l 1,8,-1
 281 0 l 1,5,-1
1270 0 m 1,9,-1
 1270 218 l 1,10,-1
 895 218 l 1,11,-1
 895 289 l 1,12,-1
 1270 861 l 1,13,-1
 1363 861 l 1,14,-1
 1363 300 l 1,15,-1
 1455 300 l 1,16,-1
 1463 218 l 1,17,-1
 1363 218 l 1,18,-1
 1363 0 l 1,19,-1
 1270 0 l 1,9,-1
149 681 m 1,20,-1
 149 747 l 1,21,-1
 253 747 l 1,22,-1
 253 1416 l 1,23,24
 224 1394 224 1394 139 1344 c 1,25,-1
 139 1425 l 1,26,27
 233 1479 233 1479 261 1514 c 1,28,-1
 346 1514 l 1,29,-1
 346 747 l 1,30,-1
 453 747 l 1,31,-1
 453 681 l 1,32,-1
 149 681 l 1,20,-1
EndSplineSet
EndChar

StartChar: onehalf
Encoding: 189 189 120
Width: 1493
GlyphClass: 2
Flags: HW
LayerCount: 2
Fore
SplineSet
270 0 m 1,0,-1
 1158 1514 l 1,1,-1
 1251 1514 l 1,2,-1
 370 0 l 1,3,-1
 270 0 l 1,0,-1
1192 832 m 0,4,5
 1071 832 1071 832 991 704 c 1,6,-1
 909 735 l 1,7,8
 946 824 946 824 1022.5 872 c 128,-1,9
 1099 920 1099 920 1198.5 920 c 128,-1,10
 1298 920 1298 920 1375 853 c 128,-1,11
 1452 786 1452 786 1452 671 c 0,12,13
 1452 550 1452 550 1328 407 c 0,14,15
 1262 331 1262 331 1164 230.5 c 128,-1,16
 1066 130 1066 130 1021 82 c 1,17,-1
 1435 82 l 1,18,-1
 1443 0 l 1,19,-1
 892 0 l 1,20,-1
 892 77 l 1,21,22
 1175 380 1175 380 1262 492 c 128,-1,23
 1349 604 1349 604 1349 676.5 c 128,-1,24
 1349 749 1349 749 1301.5 790.5 c 128,-1,25
 1254 832 1254 832 1192 832 c 0,4,5
149 681 m 1,26,-1
 149 747 l 1,27,-1
 253 747 l 1,28,-1
 253 1416 l 1,29,30
 224 1394 224 1394 139 1344 c 1,31,-1
 139 1425 l 1,32,33
 233 1479 233 1479 261 1514 c 1,34,-1
 346 1514 l 1,35,-1
 346 747 l 1,36,-1
 453 747 l 1,37,-1
 453 681 l 1,38,-1
 149 681 l 1,26,-1
EndSplineSet
EndChar

StartChar: threequarters
Encoding: 190 190 121
Width: 1606
GlyphClass: 2
Flags: HW
LayerCount: 2
Fore
SplineSet
1065 300 m 1,0,-1
 1340 300 l 1,1,2
 1340 492 1340 492 1340 599 c 128,-1,3
 1340 706 1340 706 1340 727 c 1,4,-1
 1065 300 l 1,0,-1
351 0 m 1,5,-1
 1239 1514 l 1,6,-1
 1332 1514 l 1,7,-1
 451 0 l 1,8,-1
 351 0 l 1,5,-1
1340 0 m 1,9,-1
 1340 218 l 1,10,-1
 965 218 l 1,11,-1
 965 289 l 1,12,-1
 1340 861 l 1,13,-1
 1433 861 l 1,14,-1
 1433 300 l 1,15,-1
 1525 300 l 1,16,-1
 1533 218 l 1,17,-1
 1433 218 l 1,18,-1
 1433 0 l 1,19,-1
 1340 0 l 1,9,-1
316 1109 m 2,20,21
 487 1109 487 1109 487 1258 c 0,22,23
 487 1264 487 1264 487 1271 c 0,24,25
 484 1331 484 1331 443 1369.5 c 128,-1,26
 402 1408 402 1408 347 1408 c 128,-1,27
 292 1408 292 1408 244.5 1393 c 128,-1,28
 197 1378 197 1378 174 1358 c 1,29,-1
 133 1429 l 1,30,31
 165 1452 165 1452 221.5 1468 c 128,-1,32
 278 1484 278 1484 331 1484 c 128,-1,33
 384 1484 384 1484 427.5 1472.5 c 128,-1,34
 471 1461 471 1461 507 1437 c 0,35,36
 585 1385 585 1385 585 1273 c 0,37,38
 585 1153 585 1153 491 1098 c 0,39,40
 479 1091 479 1091 452 1076 c 1,41,42
 605 1033 605 1033 605 870 c 0,43,44
 605 754 605 754 535.5 689.5 c 128,-1,45
 466 625 466 625 359 625 c 0,46,47
 207 625 207 625 129 703 c 1,48,-1
 167 771 l 1,49,50
 223 728 223 728 265 715.5 c 128,-1,51
 307 703 307 703 363 703 c 128,-1,52
 419 703 419 703 468.5 748.5 c 128,-1,53
 518 794 518 794 518 863 c 0,54,55
 518 1035 518 1035 325 1035 c 2,56,-1
 236 1035 l 1,57,-1
 236 1109 l 1,58,-1
 316 1109 l 2,20,21
EndSplineSet
EndChar

StartChar: AE
Encoding: 198 198 129
Width: 1915
GlyphClass: 2
Flags: HW
LayerCount: 2
Fore
SplineSet
495 600 m 1,0,-1
 1006 600 l 1,1,-1
 950 1378 l 1,2,-1
 495 600 l 1,0,-1
6 0 m 1,3,-1
 892 1488 l 1,4,-1
 1786 1488 l 1,5,-1
 1779 1377 l 1,6,-1
 1060 1377 l 1,7,-1
 1101 822 l 1,8,-1
 1744 822 l 1,9,-1
 1744 713 l 1,10,-1
 1109 713 l 1,11,-1
 1158 111 l 1,12,-1
 1801 111 l 1,13,-1
 1790 0 l 1,14,-1
 1053 0 l 1,15,-1
 1014 505 l 1,16,-1
 441 505 l 1,17,-1
 148 0 l 1,18,-1
 6 0 l 1,3,-1
EndSplineSet
EndChar

StartChar: Eth
Encoding: 208 208 139
AltUni2: 000110.ffffffff.0
Width: 1498
GlyphClass: 2
Flags: HW
LayerCount: 2
Fore
SplineSet
182 0 m 1,0,-1
 182 737 l 1,1,-1
 40 737 l 1,2,-1
 40 833 l 1,3,-1
 182 833 l 1,4,-1
 182 1488 l 1,5,-1
 585 1488 l 2,6,7
 951 1488 951 1488 1160 1314 c 0,8,9
 1380 1130 1380 1130 1380 754 c 128,-1,10
 1380 378 1380 378 1179 189 c 128,-1,11
 978 0 978 0 616 0 c 2,12,-1
 182 0 l 1,0,-1
310 107 m 1,13,-1
 602 107 l 2,14,15
 912 107 912 107 1074.5 265.5 c 128,-1,16
 1237 424 1237 424 1237 738 c 0,17,18
 1237 1082 1237 1082 1058 1236 c 0,19,20
 887 1382 887 1382 573 1382 c 2,21,-1
 310 1382 l 1,22,-1
 310 833 l 1,23,-1
 552 833 l 1,24,-1
 552 737 l 1,25,-1
 310 737 l 1,26,-1
 310 107 l 1,13,-1
EndSplineSet
EndChar

StartChar: multiply
Encoding: 215 215 146
Width: 1101
GlyphClass: 2
Flags: HW
LayerCount: 2
Fore
SplineSet
864 261 m 1,0,-1
 557 569 l 1,1,-1
 249 262 l 1,2,-1
 172 339 l 1,3,-1
 480 646 l 1,4,-1
 173 954 l 1,5,-1
 250 1031 l 1,6,-1
 557 723 l 1,7,-1
 865 1030 l 1,8,-1
 942 953 l 1,9,-1
 634 646 l 1,10,-1
 941 338 l 1,11,-1
 864 261 l 1,0,-1
EndSplineSet
EndChar

StartChar: Oslash
Encoding: 216 216 147
Width: 1627
GlyphClass: 2
Flags: HW
LayerCount: 2
Fore
SplineSet
815 82 m 0,0,1
 998 82 998 82 1124 166 c 0,2,3
 1366 328 1366 328 1366.5 752 c 128,-1,4
 1367 1176 1367 1176 1118 1332 c 1,5,-1
 619 111 l 1,6,7
 708 82 708 82 815 82 c 0,0,1
530 150 m 1,8,-1
 1029 1376 l 1,9,10
 932 1410 932 1410 816 1410 c 0,11,12
 544 1410 544 1410 401 1236 c 128,-1,13
 258 1062 258 1062 258 745 c 0,14,15
 258 533 258 533 326.5 379.5 c 128,-1,16
 395 226 395 226 530 150 c 1,8,-1
480 -229 m 1,17,-1
 391 -192 l 1,18,-1
 487 44 l 1,19,20
 306 130 306 130 212 312.5 c 128,-1,21
 118 495 118 495 118 736 c 128,-1,22
 118 977 118 977 197.5 1150 c 128,-1,23
 277 1323 277 1323 435.5 1420 c 128,-1,24
 594 1517 594 1517 816 1517 c 0,25,26
 953 1517 953 1517 1070 1477 c 1,27,-1
 1163 1706 l 1,28,-1
 1257 1673 l 1,29,-1
 1161 1437 l 1,30,31
 1329 1347 1329 1347 1419 1167 c 128,-1,32
 1509 987 1509 987 1509 743 c 0,33,34
 1510 407 1510 407 1334 196 c 0,35,36
 1248 93 1248 93 1115 35 c 128,-1,37
 982 -23 982 -23 833 -23 c 128,-1,38
 684 -23 684 -23 578 10 c 1,39,-1
 480 -229 l 1,17,-1
EndSplineSet
EndChar

StartChar: Thorn
Encoding: 222 222 153
Width: 1275
GlyphClass: 2
Flags: HW
LayerCount: 2
Fore
SplineSet
310 458 m 1,0,-1
 744 458 l 2,1,2
 1030 458 1030 458 1076 675 c 0,3,4
 1086 720 1086 720 1085.5 802 c 0,5,6
 1084 884 1084 884 1050 950 c 0,7,8
 979 1086 979 1086 695 1085 c 2,9,-1
 310 1085 l 1,10,-1
 310 458 l 1,0,-1
182 0 m 1,11,-1
 182 1488 l 1,12,-1
 310 1488 l 1,13,-1
 310 1191 l 1,14,-1
 679 1191 l 2,15,16
 960 1191 960 1191 1088 1095.5 c 128,-1,17
 1216 1000 1216 1000 1216 765 c 0,18,19
 1216 535 1216 535 1068 434 c 0,20,21
 953 356 953 356 738 356 c 2,22,-1
 310 356 l 1,23,-1
 310 0 l 1,24,-1
 182 0 l 1,11,-1
EndSplineSet
EndChar

StartChar: germandbls
Encoding: 223 223 154
Width: 1205
GlyphClass: 2
Flags: HW
LayerCount: 2
Fore
SplineSet
123 0 m 1,0,-1
 123 1060 l 2,1,2
 123 1293 123 1293 230 1420.5 c 128,-1,3
 337 1548 337 1548 542.5 1548 c 128,-1,4
 748 1548 748 1548 852 1455 c 128,-1,5
 956 1362 956 1362 956 1205 c 0,6,7
 956 1076 956 1076 864 1000 c 0,8,9
 827 969 827 969 753.5 926 c 128,-1,10
 680 883 680 883 650 864 c 1,11,12
 714 811 714 811 815 750 c 128,-1,13
 916 689 916 689 971 647.5 c 128,-1,14
 1026 606 1026 606 1064 566 c 0,15,16
 1150 474 1150 474 1150 351 c 0,17,18
 1150 0 1150 0 783 0 c 2,19,-1
 416 0 l 1,20,-1
 428 108 l 1,21,-1
 807 108 l 2,22,23
 909 108 909 108 967.5 175.5 c 128,-1,24
 1026 243 1026 243 1026 347 c 0,25,26
 1026 445 1026 445 908 542 c 0,27,28
 817 617 817 617 718 677.5 c 128,-1,29
 619 738 619 738 602.5 749.5 c 128,-1,30
 586 761 586 761 571.5 771.5 c 128,-1,31
 557 782 557 782 550.5 786.5 c 128,-1,32
 544 791 544 791 535 799.5 c 128,-1,33
 526 808 526 808 522 814 c 0,34,35
 512 829 512 829 512 846 c 0,36,37
 512 905 512 905 576 945 c 0,38,39
 601 961 601 961 643.5 985.5 c 128,-1,40
 686 1010 686 1010 707.5 1023 c 128,-1,41
 729 1036 729 1036 758 1058.5 c 0,42,43
 787 1082 787 1082 801 1102 c 0,44,45
 836 1153 836 1153 836 1218 c 0,46,47
 836 1323 836 1323 767 1386 c 128,-1,48
 698 1449 698 1449 567 1449 c 0,49,50
 326 1449 326 1449 268 1225 c 0,51,52
 252 1161 252 1161 251 1082 c 2,53,-1
 251 0 l 1,54,-1
 123 0 l 1,0,-1
EndSplineSet
EndChar

StartChar: ae
Encoding: 230 230 161
Width: 1650
GlyphClass: 2
Flags: HW
LayerCount: 2
Fore
SplineSet
868 607 m 1,0,1
 1273 619 1273 619 1324.5 623 c 128,-1,2
 1376 627 1376 627 1400.5 646.5 c 128,-1,3
 1425 666 1425 666 1425 713 c 0,4,5
 1425 852 1425 852 1365 931.5 c 128,-1,6
 1305 1011 1305 1011 1196 1011 c 0,7,8
 1001 1011 1001 1011 918 831 c 0,9,10
 875 737 875 737 868 607 c 1,0,1
285 124 m 128,-1,12
 347 75 347 75 471.5 75 c 128,-1,13
 596 75 596 75 822 165 c 1,14,15
 777 254 777 254 757.5 332 c 128,-1,16
 738 410 738 410 732 515 c 1,17,18
 365 516 365 516 273 422 c 0,19,20
 242 390 242 390 232.5 358.5 c 128,-1,21
 223 327 223 327 223 282 c 0,22,11
 223 173 223 173 285 124 c 128,-1,12
656.5 9.5 m 128,-1,24
 536 -24 536 -24 454 -24 c 128,-1,25
 372 -24 372 -24 315.5 -8.5 c 0,26,27
 258 6 258 6 208 40 c 0,28,29
 98 113 98 113 99 289 c 0,30,31
 99 541 99 541 443 590 c 0,32,33
 548 605 548 605 686 607 c 1,34,-1
 739 607 l 1,35,-1
 739 803 l 2,36,37
 739 1009 739 1009 550 1009 c 0,38,39
 347 1009 347 1009 189 913 c 1,40,-1
 146 1019 l 1,41,42
 203 1056 203 1056 315.5 1086.5 c 128,-1,43
 428 1117 428 1117 501 1117 c 128,-1,44
 574 1117 574 1117 623.5 1104 c 128,-1,45
 673 1091 673 1091 720.5 1065 c 128,-1,46
 768 1039 768 1039 800 993 c 128,-1,47
 832 947 832 947 837 889 c 1,48,49
 873 972 873 972 934 1024 c 0,50,51
 1043 1118 1043 1118 1199 1117 c 0,52,53
 1414 1116 1414 1116 1502 922 c 0,54,55
 1546 824 1546 824 1546 722 c 128,-1,56
 1546 620 1546 620 1488.5 575.5 c 128,-1,57
 1431 531 1431 531 1293 530 c 1,58,59
 924 513 924 513 869 513 c 2,60,-1
 865 513 l 1,61,62
 872 309 872 309 951.5 192 c 128,-1,63
 1031 75 1031 75 1191 75 c 0,64,65
 1293 75 1293 75 1367 99.5 c 128,-1,66
 1441 124 1441 124 1535 175 c 1,67,-1
 1556 75 l 1,68,69
 1419 -24 1419 -24 1183 -24 c 0,70,71
 996 -24 996 -24 880 95 c 1,72,23
 777 43 777 43 656.5 9.5 c 128,-1,24
EndSplineSet
EndChar

StartChar: eth
Encoding: 240 240 171
Width: 1194
GlyphClass: 2
Flags: HW
LayerCount: 2
Fore
SplineSet
598 72 m 0,0,1
 773 72 773 72 873 186.5 c 128,-1,2
 973 301 973 301 973 472 c 0,3,4
 972 618 972 618 876 740 c 0,5,6
 830 798 830 798 756 835 c 128,-1,7
 682 872 682 872 582 872 c 128,-1,8
 482 872 482 872 398.5 817 c 128,-1,9
 315 762 315 762 273.5 676 c 128,-1,10
 232 590 232 590 232 501 c 128,-1,11
 232 412 232 412 254.5 339 c 128,-1,12
 277 266 277 266 320.5 205.5 c 128,-1,13
 364 145 364 145 436 108.5 c 128,-1,14
 508 72 508 72 598 72 c 0,0,1
816 14 m 128,-1,16
 718 -28 718 -28 608 -28 c 128,-1,17
 498 -28 498 -28 416.5 0.5 c 128,-1,18
 335 29 335 29 278 78.5 c 0,19,20
 220 128 220 128 180 194 c 0,21,22
 100 324 100 324 101 487 c 0,23,24
 101 703 101 703 234.5 836.5 c 128,-1,25
 368 970 368 970 586 970 c 0,26,27
 754 970 754 970 878 861 c 2,28,-1
 929 816 l 1,29,30
 883 900 883 900 771.5 1026.5 c 128,-1,31
 660 1153 660 1153 554 1252 c 1,32,-1
 272 1133 l 1,33,-1
 246 1229 l 1,34,-1
 483 1324 l 1,35,-1
 232 1546 l 1,36,-1
 390 1546 l 1,37,-1
 579 1374 l 1,38,-1
 868 1500 l 1,39,-1
 897 1408 l 1,40,-1
 649 1299 l 1,41,42
 675 1271 675 1271 749 1195.5 c 128,-1,43
 823 1120 823 1120 870.5 1065 c 128,-1,44
 918 1010 918 1010 980 916 c 0,45,46
 1096 743 1096 743 1096 499 c 2,47,-1
 1096 492 l 2,48,49
 1096 276 1096 276 974 128 c 0,50,15
 914 56 914 56 816 14 c 128,-1,16
EndSplineSet
EndChar

StartChar: divide
Encoding: 247 247 178
Width: 1099
GlyphClass: 2
Flags: HW
LayerCount: 2
Fore
SplineSet
446 913 m 1,0,-1
 446 1115 l 1,1,-1
 637 1115 l 1,2,-1
 637 913 l 1,3,-1
 446 913 l 1,0,-1
60 554 m 1,4,-1
 60 675 l 1,5,-1
 1017 675 l 1,6,-1
 1017 554 l 1,7,-1
 60 554 l 1,4,-1
446 82 m 1,8,-1
 446 284 l 1,9,-1
 637 284 l 1,10,-1
 637 82 l 1,11,-1
 446 82 l 1,8,-1
EndSplineSet
EndChar

StartChar: oslash
Encoding: 248 248 179
Width: 1190
GlyphClass: 2
Flags: HW
LayerCount: 2
Fore
SplineSet
454 104 m 1,0,1
 520 75 520 75 620.5 75 c 0,2,3
 722 74 722 74 804 138 c 0,4,5
 962 259 962 259 961.5 549.5 c 128,-1,6
 961 840 961 840 802 955 c 1,7,-1
 454 104 l 1,0,1
392 139 m 1,8,-1
 739 990 l 1,9,10
 675 1015 675 1015 576 1015 c 0,11,12
 476 1014 476 1014 392 950 c 0,13,14
 230 826 230 826 230 542 c 0,15,16
 230 410 230 410 271 304 c 128,-1,17
 312 198 312 198 392 139 c 1,8,-1
284 -311 m 1,18,-1
 220 -283 l 1,19,-1
 351 38 l 1,20,21
 231 107 231 107 164 241 c 128,-1,22
 97 375 97 375 97 521 c 128,-1,23
 97 667 97 667 131.5 771.5 c 128,-1,24
 166 876 166 876 230 952 c 0,25,26
 367 1116 367 1116 600 1116 c 0,27,28
 694 1116 694 1116 778 1086 c 1,29,-1
 910 1410 l 1,30,-1
 979 1386 l 1,31,-1
 844 1055 l 1,32,33
 963 987 963 987 1028 852.5 c 128,-1,34
 1093 718 1093 718 1093 550.5 c 128,-1,35
 1093 383 1093 383 1035 255 c 128,-1,36
 977 127 977 127 862 51.5 c 128,-1,37
 747 -24 747 -24 592 -24 c 0,38,39
 498 -24 498 -24 414 7 c 1,40,-1
 284 -311 l 1,18,-1
EndSplineSet
EndChar

StartChar: thorn
Encoding: 254 254 185
Width: 1175
GlyphClass: 2
Flags: HW
LayerCount: 2
Fore
SplineSet
621 78 m 0,0,1
 792 78 792 78 882 250 c 0,2,3
 948 376 948 376 948 564 c 0,4,5
 948 689 948 689 914 774.5 c 128,-1,6
 880 860 880 860 842 906 c 0,7,8
 755 1011 755 1011 599 1011 c 0,9,10
 513 1011 513 1011 447.5 973.5 c 128,-1,11
 382 936 382 936 344 872 c 0,12,13
 270 744 270 744 270 564 c 0,14,15
 270 281 270 281 401 158 c 0,16,17
 487 78 487 78 621 78 c 0,0,1
147 -488 m 1,18,-1
 147 1514 l 1,19,-1
 271 1514 l 1,20,-1
 271 907 l 1,21,22
 311 986 311 986 400 1050.5 c 128,-1,23
 489 1115 489 1115 611 1116 c 1,24,25
 833 1116 833 1116 955.5 966 c 128,-1,26
 1078 816 1078 816 1078 560 c 0,27,28
 1078 210 1078 210 876 56 c 0,29,30
 772 -24 772 -24 625 -23 c 0,31,32
 480 -23 480 -23 368 65 c 0,33,34
 306 113 306 113 271 183 c 1,35,-1
 271 -479 l 1,36,-1
 147 -488 l 1,18,-1
EndSplineSet
EndChar

StartChar: dcaron
Encoding: 271 271 202
Width: 1183
GlyphClass: 2
Flags: HW
LayerCount: 2
Fore
SplineSet
570 75 m 1,0,1
 652 75 652 75 721.5 109 c 128,-1,2
 791 143 791 143 833 205 c 0,3,4
 916 328 916 328 916 526 c 0,5,6
 916 1015 916 1015 556 1015 c 0,7,8
 471 1015 471 1015 406 974.5 c 0,9,10
 342 934 342 934 304 866 c 0,11,12
 230 732 230 732 230 547 c 0,13,14
 230 298 230 298 339 170 c 0,15,16
 420 76 420 76 570 75 c 1,0,1
561 -23 m 0,17,18
 342 -23 342 -23 219.5 129 c 128,-1,19
 97 281 97 281 97 541 c 128,-1,20
 97 801 97 801 223.5 958.5 c 128,-1,21
 350 1116 350 1116 557 1116 c 0,22,23
 659 1116 659 1116 761 1072 c 128,-1,24
 863 1028 863 1028 916 935 c 1,25,-1
 916 1521 l 1,26,-1
 1036 1532 l 1,27,-1
 1036 0 l 1,28,-1
 933 0 l 1,29,-1
 915 165 l 1,30,31
 858 72 858 72 760.5 24.5 c 128,-1,32
 663 -23 663 -23 561 -23 c 0,17,18
1189 1082 m 1,33,-1
 1327 1532 l 1,34,-1
 1463 1532 l 1,35,-1
 1293 1082 l 1,36,-1
 1189 1082 l 1,33,-1
EndSplineSet
EndChar

StartChar: dcroat
Encoding: 273 273 203
Width: 1183
GlyphClass: 2
Flags: HW
LayerCount: 2
Fore
SplineSet
570 75 m 1,0,1
 652 75 652 75 721.5 109 c 128,-1,2
 791 143 791 143 833 205 c 0,3,4
 916 328 916 328 916 526 c 0,5,6
 916 1015 916 1015 556 1015 c 0,7,8
 471 1015 471 1015 406 974.5 c 0,9,10
 342 934 342 934 304 866 c 0,11,12
 230 732 230 732 230 547 c 0,13,14
 230 298 230 298 339 170 c 0,15,16
 420 76 420 76 570 75 c 1,0,1
561 -23 m 0,17,18
 342 -23 342 -23 219.5 129 c 128,-1,19
 97 281 97 281 97 541 c 128,-1,20
 97 801 97 801 223.5 958.5 c 128,-1,21
 350 1116 350 1116 557 1116 c 0,22,23
 659 1116 659 1116 761 1072 c 128,-1,24
 863 1028 863 1028 916 935 c 1,25,-1
 916 1254 l 1,26,-1
 659 1254 l 1,27,-1
 659 1335 l 1,28,-1
 916 1335 l 1,29,-1
 916 1521 l 1,30,-1
 1036 1532 l 1,31,-1
 1036 1335 l 1,32,-1
 1138 1335 l 1,33,-1
 1138 1254 l 1,34,-1
 1036 1254 l 1,35,-1
 1036 0 l 1,36,-1
 933 0 l 1,37,-1
 915 165 l 1,38,39
 858 72 858 72 760.5 24.5 c 128,-1,40
 663 -23 663 -23 561 -23 c 0,17,18
EndSplineSet
EndChar

StartChar: gcommaaccent
Encoding: 291 291 220
Width: 1150
GlyphClass: 2
Flags: HW
LayerCount: 2
Fore
SplineSet
566 101 m 1,0,1
 642 101 642 101 701 124.5 c 128,-1,2
 760 148 760 148 798.5 186.5 c 0,3,4
 838 225 838 225 864 277 c 0,5,6
 912 372 912 372 912 499 c 2,7,-1
 912 613 l 2,8,9
 912 774 912 774 834 888 c 0,10,11
 749 1014 749 1014 566 1014 c 0,12,13
 359 1014 359 1014 271 800 c 0,14,15
 224 686 224 686 224 537 c 0,16,17
 224 322 224 322 330 200 c 0,18,19
 416 102 416 102 566 101 c 1,0,1
912 198 m 1,20,21
 781 0 781 0 553 0 c 0,22,23
 455 0 455 0 374.5 35 c 128,-1,24
 294 70 294 70 242.5 126 c 128,-1,25
 191 182 191 182 156 254 c 0,26,27
 91 388 91 388 91 539 c 0,28,29
 91 834 91 834 246 994 c 0,30,31
 365 1116 365 1116 577 1116 c 0,32,33
 682 1116 682 1116 762.5 1074.5 c 128,-1,34
 843 1033 843 1033 912 942 c 1,35,-1
 924 1096 l 1,36,-1
 1034 1096 l 1,37,-1
 1034 80 l 2,38,39
 1034 -148 1034 -148 992 -250 c 0,40,41
 974 -294 974 -294 935.5 -348.5 c 0,42,43
 898 -403 898 -403 844 -434 c 0,44,45
 715 -509 715 -509 517 -509 c 2,46,-1
 316 -509 l 1,47,-1
 301 -398 l 1,48,-1
 533 -398 l 2,49,50
 758 -398 758 -398 838 -290 c 0,51,52
 893 -216 893 -216 904 -135 c 0,53,54
 919 -26 919 -26 919 43.5 c 128,-1,55
 919 113 919 113 917 129 c 2,56,-1
 912 198 l 1,20,21
508 1275 m 1,57,-1
 673 1762 l 1,58,-1
 771 1762 l 1,59,-1
 661 1275 l 1,60,-1
 508 1275 l 1,57,-1
EndSplineSet
EndChar

StartChar: Hbar
Encoding: 294 294 223
Width: 1450
GlyphClass: 2
Flags: HW
LayerCount: 2
Fore
SplineSet
290 845 m 1,0,-1
 1162 845 l 1,1,-1
 1162 1125 l 1,2,-1
 290 1125 l 1,3,-1
 290 845 l 1,0,-1
155 0 m 1,4,-1
 155 1125 l 1,5,-1
 62 1125 l 1,6,-1
 62 1212 l 1,7,-1
 155 1212 l 1,8,-1
 155 1521 l 1,9,-1
 290 1521 l 1,10,-1
 290 1212 l 1,11,-1
 1162 1212 l 1,12,-1
 1162 1521 l 1,13,-1
 1297 1521 l 1,14,-1
 1297 1212 l 1,15,-1
 1389 1212 l 1,16,-1
 1389 1125 l 1,17,-1
 1297 1125 l 1,18,-1
 1297 0 l 1,19,-1
 1162 0 l 1,20,-1
 1162 721 l 1,21,-1
 290 721 l 1,22,-1
 290 0 l 1,23,-1
 155 0 l 1,4,-1
EndSplineSet
EndChar

StartChar: hbar
Encoding: 295 295 224
Width: 1077
GlyphClass: 2
Flags: HW
LayerCount: 2
Fore
SplineSet
652 1127 m 0,0,1
 967 1127 967 1127 967 662 c 2,2,-1
 967 0 l 1,3,-1
 839 0 l 1,4,-1
 839 593 l 2,5,6
 839 776 839 776 819 848 c 0,7,8
 798 920 798 920 772 950 c 0,9,10
 716 1014 716 1014 600 1015 c 0,11,12
 464 1016 464 1016 358 924 c 0,13,14
 258 837 258 837 246 750 c 1,15,-1
 246 0 l 1,16,-1
 117 0 l 1,17,-1
 117 1300 l 1,18,-1
 28 1300 l 1,19,-1
 28 1403 l 1,20,-1
 117 1403 l 1,21,-1
 117 1486 l 1,22,-1
 246 1507 l 1,23,-1
 246 1403 l 1,24,-1
 512 1403 l 1,25,-1
 512 1300 l 1,26,-1
 246 1300 l 1,27,-1
 246 933 l 1,28,29
 394 1127 394 1127 652 1127 c 0,0,1
EndSplineSet
EndChar

StartChar: dotlessi
Encoding: 305 305 234
Width: 376
GlyphClass: 2
Flags: HW
LayerCount: 2
Fore
SplineSet
138 0 m 1,0,-1
 138 1096 l 1,1,-1
 263 1096 l 1,2,-1
 263 0 l 1,3,-1
 138 0 l 1,0,-1
EndSplineSet
EndChar

StartChar: kgreenlandic
Encoding: 312 312 241
Width: 986
GlyphClass: 2
Flags: HW
LayerCount: 2
Fore
SplineSet
272 541 m 1,0,1
 315 593 315 593 777 1096 c 1,2,-1
 944 1096 l 1,3,-1
 485 611 l 1,4,-1
 976 0 l 1,5,-1
 819 0 l 1,6,-1
 400 541 l 1,7,-1
 272 423 l 1,8,-1
 272 0 l 1,9,-1
 149 0 l 1,10,-1
 149 1096 l 1,11,-1
 272 1096 l 1,12,-1
 272 541 l 1,0,1
EndSplineSet
EndChar

StartChar: Lcaron
Encoding: 317 317 246
Width: 998
GlyphClass: 2
Flags: HW
LayerCount: 2
Fore
SplineSet
182 0 m 1,0,-1
 182 1488 l 1,1,-1
 311 1488 l 1,2,-1
 311 113 l 1,3,-1
 980 113 l 1,4,-1
 974 0 l 1,5,-1
 182 0 l 1,0,-1
1133 1064 m 1,6,-1
 1271 1514 l 1,7,-1
 1407 1514 l 1,8,-1
 1237 1064 l 1,9,-1
 1133 1064 l 1,6,-1
EndSplineSet
EndChar

StartChar: lcaron
Encoding: 318 318 247
Width: 581
GlyphClass: 2
Flags: HW
LayerCount: 2
Fore
SplineSet
423 -23 m 0,0,1
 285 -23 285 -23 221 39.5 c 128,-1,2
 157 102 157 102 157 243 c 2,3,-1
 157 1522 l 1,4,-1
 279 1532 l 1,5,-1
 279 250 l 2,6,7
 279 150 279 150 315.5 112 c 128,-1,8
 352 74 352 74 419 74 c 0,9,10
 486 74 486 74 576 97 c 1,11,-1
 581 1 l 1,12,13
 483 -23 483 -23 423 -23 c 0,0,1
734 1082 m 1,14,-1
 872 1532 l 1,15,-1
 1008 1532 l 1,16,-1
 838 1082 l 1,17,-1
 734 1082 l 1,14,-1
EndSplineSet
EndChar

StartChar: Lslash
Encoding: 321 321 250
Width: 936
GlyphClass: 2
Flags: HW
LayerCount: 2
Fore
SplineSet
156 0 m 1,0,-1
 156 618 l 1,1,-1
 9 545 l 1,2,-1
 9 669 l 1,3,-1
 156 744 l 1,4,-1
 156 1518 l 1,5,-1
 291 1518 l 1,6,-1
 291 801 l 1,7,-1
 653 998 l 1,8,-1
 653 862 l 1,9,-1
 291 672 l 1,10,-1
 291 124 l 1,11,-1
 966 124 l 1,12,-1
 955 0 l 1,13,-1
 156 0 l 1,0,-1
EndSplineSet
EndChar

StartChar: lslash
Encoding: 322 322 251
Width: 548
GlyphClass: 2
Flags: HW
LayerCount: 2
Fore
SplineSet
579 -12 m 1,0,1
 470 -25 470 -25 414 -25 c 128,-1,2
 358 -25 358 -25 328.5 -22 c 128,-1,3
 299 -19 299 -19 275 -9.5 c 128,-1,4
 251 0 251 0 233 9.5 c 128,-1,5
 215 19 215 19 201 40 c 128,-1,6
 187 61 187 61 177.5 79 c 128,-1,7
 168 97 168 97 161.5 132 c 128,-1,8
 155 167 155 167 151.5 195 c 128,-1,9
 148 223 148 223 146 274 c 0,10,11
 143 350 143 350 143 474 c 2,12,-1
 143 493 l 1,13,-1
 31 394 l 1,14,-1
 31 514 l 1,15,-1
 143 613 l 1,16,-1
 143 1487 l 1,17,-1
 272 1507 l 1,18,-1
 272 729 l 1,19,-1
 456 892 l 1,20,-1
 456 770 l 1,21,-1
 272 608 l 1,22,-1
 272 352 l 2,23,24
 272 192 272 192 290 150.5 c 128,-1,25
 308 109 308 109 319 101.5 c 128,-1,26
 330 94 330 94 344 87 c 0,27,28
 365 76 365 76 399.5 76 c 128,-1,29
 434 76 434 76 564 88 c 1,30,-1
 579 -12 l 1,0,1
EndSplineSet
EndChar

StartChar: OE
Encoding: 338 338 264
Width: 1949
GlyphClass: 2
Flags: HW
LayerCount: 2
Fore
SplineSet
593.5 119 m 0,0,1
 692 82 692 82 782 82 c 128,-1,2
 872 82 872 82 921.5 90.5 c 128,-1,3
 971 99 971 99 1000.5 107 c 0,4,5
 1030 114 1030 114 1065 132 c 0,6,7
 1103 151 1103 151 1139 175 c 1,8,-1
 1139 1318 l 1,9,10
 1003 1407 1003 1407 807 1407 c 0,11,12
 553 1407 553 1407 405.5 1242 c 128,-1,13
 258 1077 258 1077 258 771 c 0,14,15
 258 392 258 392 432 218 c 0,16,17
 494 156 494 156 593.5 119 c 0,0,1
817 -23 m 0,18,19
 295 -24 295 -24 160 452 c 0,20,21
 118 600 118 600 118 774.5 c 128,-1,22
 118 949 118 949 169.5 1086 c 128,-1,23
 221 1223 221 1223 311 1316.5 c 128,-1,24
 401 1410 401 1410 527 1462 c 128,-1,25
 653 1514 653 1514 780 1514 c 0,26,27
 1024 1514 1024 1514 1139 1435 c 1,28,-1
 1139 1488 l 1,29,-1
 1813 1488 l 1,30,-1
 1797 1382 l 1,31,-1
 1267 1382 l 1,32,-1
 1267 822 l 1,33,-1
 1758 822 l 1,34,-1
 1758 713 l 1,35,-1
 1267 713 l 1,36,-1
 1267 107 l 1,37,-1
 1835 107 l 1,38,-1
 1821 0 l 1,39,-1
 1139 0 l 1,40,-1
 1139 60 l 1,41,42
 1120 37 1120 37 1008.5 7 c 128,-1,43
 897 -23 897 -23 817 -23 c 0,18,19
EndSplineSet
EndChar

StartChar: oe
Encoding: 339 339 265
Width: 1930
GlyphClass: 2
Flags: HW
LayerCount: 2
Fore
SplineSet
1701 633 m 1,0,1
 1701 639 1701 639 1701 644 c 0,2,3
 1699 823 1699 823 1624 917 c 128,-1,4
 1549 1011 1549 1011 1412 1011 c 128,-1,5
 1275 1011 1275 1011 1189 907 c 128,-1,6
 1103 803 1103 803 1087 633 c 1,7,-1
 1701 633 l 1,0,1
594 75 m 0,8,9
 685 75 685 75 754.5 111 c 0,10,11
 824 148 824 148 866 212 c 0,12,13
 950 340 950 340 951 545 c 0,14,15
 951 752 951 752 868 880 c 0,16,17
 780 1016 780 1016 591 1015 c 1,18,19
 471 1014 471 1014 388 950 c 0,20,21
 230 827 230 827 230 542 c 0,22,23
 230 340 230 340 318 212 c 0,24,25
 411 76 411 76 594 75 c 0,8,9
1836 608 m 1,26,-1
 1835 533 l 1,27,-1
 1082 533 l 1,28,29
 1084 322 1084 322 1184 198.5 c 128,-1,30
 1284 75 1284 75 1448 75 c 0,31,32
 1548 75 1548 75 1601 94 c 0,33,34
 1654 112 1654 112 1673 120 c 0,35,36
 1705 132 1705 132 1789 179 c 1,37,-1
 1810 78 l 1,38,39
 1725 26 1725 26 1641.5 1 c 128,-1,40
 1558 -24 1558 -24 1424 -24 c 128,-1,41
 1290 -24 1290 -24 1181 51 c 128,-1,42
 1072 126 1072 126 1019 264 c 1,43,44
 964 129 964 129 853.5 52.5 c 128,-1,45
 743 -24 743 -24 590 -24 c 128,-1,46
 437 -24 437 -24 325 51 c 128,-1,47
 213 126 213 126 155 254.5 c 128,-1,48
 97 383 97 383 97 546 c 128,-1,49
 97 709 97 709 154.5 837 c 128,-1,50
 212 965 212 965 326 1040.5 c 128,-1,51
 440 1116 440 1116 595 1116 c 128,-1,52
 750 1116 750 1116 858 1039.5 c 128,-1,53
 966 963 966 963 1020 828 c 1,54,55
 1073 962 1073 962 1176 1037.5 c 128,-1,56
 1279 1113 1279 1113 1419 1116 c 1,57,58
 1611 1116 1611 1116 1723.5 978.5 c 128,-1,59
 1836 841 1836 841 1836 608 c 1,26,-1
EndSplineSet
EndChar

StartChar: tcaron
Encoding: 357 357 280
Width: 676
GlyphClass: 2
Flags: HW
LayerCount: 2
Fore
SplineSet
456 -23 m 0,0,1
 318 -23 318 -23 254 39.5 c 128,-1,2
 190 102 190 102 190 243 c 2,3,-1
 190 1005 l 1,4,-1
 35 1005 l 1,5,-1
 44 1080 l 1,6,-1
 192 1094 l 1,7,-1
 225 1345 l 1,8,-1
 312 1351 l 1,9,-1
 312 1096 l 1,10,-1
 632 1096 l 1,11,-1
 632 1005 l 1,12,-1
 312 1005 l 1,13,-1
 312 269 l 2,14,15
 312 153 312 153 350 113.5 c 128,-1,16
 388 74 388 74 467 74 c 0,17,18
 546 74 546 74 638 97 c 1,19,-1
 643 1 l 1,20,21
 522 -23 522 -23 456 -23 c 0,0,1
796 901 m 1,22,-1
 934 1351 l 1,23,-1
 1070 1351 l 1,24,-1
 900 901 l 1,25,-1
 796 901 l 1,22,-1
EndSplineSet
EndChar

StartChar: florin
Encoding: 402 402 300
Width: 943
GlyphClass: 2
Flags: HW
LayerCount: 2
Fore
SplineSet
170.5 -352 m 128,-1,1
 139 -359 139 -359 95.5 -359 c 128,-1,2
 52 -359 52 -359 11 -335 c 1,3,-1
 34 -247 l 1,4,5
 63 -260 63 -260 96 -260 c 0,6,7
 202 -260 202 -260 250 -11 c 0,8,9
 256 22 256 22 372 722 c 2,10,-1
 410 955 l 1,11,-1
 242 955 l 1,12,-1
 251 1046 l 1,13,-1
 432 1046 l 1,14,-1
 460 1231 l 2,15,16
 500 1494 500 1494 624 1560 c 0,17,18
 678 1588 678 1588 739.5 1588 c 128,-1,19
 801 1588 801 1588 865 1568 c 1,20,-1
 858 1471 l 1,21,22
 807 1491 807 1491 750 1491 c 128,-1,23
 693 1491 693 1491 650 1435 c 128,-1,24
 607 1379 607 1379 593 1287 c 2,25,-1
 556 1046 l 1,26,-1
 759 1046 l 1,27,-1
 749 956 l 1,28,-1
 538 956 l 1,29,-1
 393 84 l 2,30,31
 360 -111 360 -111 341.5 -160 c 128,-1,32
 323 -209 323 -209 307 -241.5 c 128,-1,33
 291 -274 291 -274 272 -293 c 128,-1,34
 253 -312 253 -312 227.5 -328.5 c 128,-1,0
 202 -345 202 -345 170.5 -352 c 128,-1,1
EndSplineSet
EndChar

StartChar: uni0237
Encoding: 567 567 343
Width: 406
GlyphClass: 2
Flags: HW
LayerCount: 2
Fore
SplineSet
-63 -594 m 1,0,-1
 -92 -473 l 1,1,-1
 -33 -473 l 2,2,3
 67 -474 67 -474 101 -448 c 0,4,5
 115 -438 115 -438 124.5 -429.5 c 128,-1,6
 134 -421 134 -421 140.5 -402 c 128,-1,7
 147 -383 147 -383 150 -371 c 0,8,9
 152 -359 152 -359 154 -332 c 0,10,11
 156 -287 156 -287 157 -237 c 2,12,-1
 157 1104 l 1,13,-1
 294 1104 l 1,14,-1
 294 -296 l 2,15,16
 294 -389 294 -389 282 -443.5 c 128,-1,17
 270 -498 270 -498 235.5 -533.5 c 128,-1,18
 201 -569 201 -569 145.5 -581.5 c 128,-1,19
 90 -594 90 -594 -5 -594 c 2,20,-1
 -63 -594 l 1,0,-1
EndSplineSet
EndChar

StartChar: circumflex
Encoding: 710 710 344
Width: 812
GlyphClass: 2
Flags: HW
LayerCount: 2
Fore
SplineSet
136 1310 m 1,0,-1
 304 1669 l 1,1,-1
 496 1669 l 1,2,-1
 667 1310 l 1,3,-1
 576 1310 l 1,4,-1
 401 1605 l 1,5,-1
 225 1310 l 1,6,-1
 136 1310 l 1,0,-1
EndSplineSet
EndChar

StartChar: caron
Encoding: 711 711 345
Width: 812
GlyphClass: 2
Flags: HW
LayerCount: 2
Fore
SplineSet
307 1310 m 1,0,-1
 136 1669 l 1,1,-1
 227 1669 l 1,2,-1
 402 1374 l 1,3,-1
 578 1669 l 1,4,-1
 667 1669 l 1,5,-1
 499 1310 l 1,6,-1
 307 1310 l 1,0,-1
EndSplineSet
EndChar

StartChar: breve
Encoding: 728 728 346
Width: 774
GlyphClass: 2
Flags: HW
LayerCount: 2
Fore
SplineSet
251 1608 m 1,0,1
 251 1434 251 1434 389 1434 c 0,2,3
 455 1434 455 1434 492.5 1478 c 128,-1,4
 530 1522 530 1522 530 1608 c 1,5,-1
 624 1608 l 1,6,7
 624 1490 624 1490 556 1423 c 128,-1,8
 488 1356 488 1356 390 1356 c 128,-1,9
 292 1356 292 1356 225.5 1422.5 c 128,-1,10
 159 1489 159 1489 159 1608 c 1,11,-1
 251 1608 l 1,0,1
EndSplineSet
EndChar

StartChar: dotaccent
Encoding: 729 729 347
Width: 352
GlyphClass: 2
Flags: HW
LayerCount: 2
Fore
SplineSet
106 1331 m 1,0,-1
 106 1516 l 1,1,-1
 259 1516 l 1,2,-1
 259 1331 l 1,3,-1
 106 1331 l 1,0,-1
EndSplineSet
EndChar

StartChar: ring
Encoding: 730 730 348
Width: 621
GlyphClass: 2
Flags: HW
LayerCount: 2
Fore
SplineSet
129 1502.5 m 128,-1,1
 129 1579 129 1579 183 1626 c 128,-1,2
 237 1673 237 1673 311.5 1673 c 128,-1,3
 386 1673 386 1673 440.5 1625.5 c 128,-1,4
 495 1578 495 1578 495 1494 c 128,-1,5
 495 1410 495 1410 441.5 1363.5 c 128,-1,6
 388 1317 388 1317 306.5 1317 c 128,-1,7
 225 1317 225 1317 177 1371.5 c 128,-1,0
 129 1426 129 1426 129 1502.5 c 128,-1,1
269 1399.5 m 128,-1,9
 290 1388 290 1388 321 1388 c 128,-1,10
 352 1388 352 1388 380 1416 c 0,11,12
 407 1444 407 1444 407 1493 c 0,13,14
 406 1546 406 1546 378 1574 c 0,15,16
 350 1602 350 1602 312.5 1602 c 128,-1,17
 275 1602 275 1602 247.5 1573.5 c 128,-1,18
 220 1545 220 1545 220 1502.5 c 128,-1,19
 220 1460 220 1460 234 1435.5 c 128,-1,8
 248 1411 248 1411 269 1399.5 c 128,-1,9
EndSplineSet
EndChar

StartChar: ogonek
Encoding: 731 731 349
Width: 596
GlyphClass: 2
Flags: HW
LayerCount: 2
Fore
SplineSet
447 -408 m 1,0,1
 373 -437 373 -437 299 -437 c 128,-1,2
 225 -437 225 -437 172.5 -388.5 c 128,-1,3
 120 -340 120 -340 120 -258 c 0,4,5
 120 -131 120 -131 311 -14 c 1,6,-1
 428 -14 l 1,7,8
 324 -93 324 -93 273 -145.5 c 128,-1,9
 222 -198 222 -198 222 -243 c 128,-1,10
 222 -288 222 -288 251.5 -312.5 c 128,-1,11
 281 -337 281 -337 312.5 -337 c 128,-1,12
 344 -337 344 -337 356 -336 c 0,13,14
 388 -333 388 -333 447 -307 c 1,15,-1
 447 -408 l 1,0,1
EndSplineSet
EndChar

StartChar: tilde
Encoding: 732 732 350
Width: 930
GlyphClass: 2
Flags: HW
LayerCount: 2
Fore
SplineSet
150 1336 m 1,0,1
 153 1443 153 1443 194.5 1482.5 c 128,-1,2
 236 1522 236 1522 295.5 1522 c 128,-1,3
 355 1522 355 1522 452 1474 c 128,-1,4
 549 1426 549 1426 569 1426 c 128,-1,5
 589 1426 589 1426 600 1435 c 128,-1,6
 611 1444 611 1444 617 1462 c 0,7,8
 626 1488 626 1488 629 1522 c 1,9,-1
 720 1522 l 1,10,11
 716 1421 716 1421 680.5 1378.5 c 128,-1,12
 645 1336 645 1336 590 1336 c 128,-1,13
 535 1336 535 1336 429.5 1387.5 c 128,-1,14
 324 1439 324 1439 301 1439 c 0,15,16
 248 1439 248 1439 240 1336 c 1,17,-1
 150 1336 l 1,0,1
EndSplineSet
EndChar

StartChar: hungarumlaut
Encoding: 733 733 351
Width: 741
GlyphClass: 2
Flags: HW
LayerCount: 2
Fore
SplineSet
315 1328 m 1,0,-1
 497 1646 l 1,1,-1
 612 1646 l 1,2,-1
 403 1328 l 1,3,-1
 315 1328 l 1,0,-1
118 1328 m 1,4,-1
 294 1646 l 1,5,-1
 414 1646 l 1,6,-1
 201 1328 l 1,7,-1
 118 1328 l 1,4,-1
EndSplineSet
EndChar

StartChar: uni0307
Encoding: 775 775 352
Width: 364
GlyphClass: 2
Flags: HW
LayerCount: 2
Fore
SplineSet
115 1357 m 1,0,-1
 115 1525 l 1,1,-1
 282 1525 l 1,2,-1
 282 1357 l 1,3,-1
 115 1357 l 1,0,-1
EndSplineSet
EndChar

StartChar: uni030F
Encoding: 783 783 353
Width: 797
GlyphClass: 2
Flags: HW
LayerCount: 2
Fore
SplineSet
603 1300 m 1,0,-1
 379 1633 l 1,1,-1
 481 1633 l 1,2,-1
 665 1300 l 1,3,-1
 603 1300 l 1,0,-1
379 1300 m 1,4,-1
 158 1633 l 1,5,-1
 251 1633 l 1,6,-1
 449 1300 l 1,7,-1
 379 1300 l 1,4,-1
EndSplineSet
EndChar

StartChar: uni0311
Encoding: 785 785 354
Width: 792
GlyphClass: 2
Flags: HW
LayerCount: 2
Fore
SplineSet
167 1345 m 1,0,1
 168 1419 168 1419 202 1473 c 0,2,3
 268 1577 268 1577 398 1577 c 0,4,5
 488 1577 488 1577 558 1519 c 0,6,7
 632 1458 632 1458 632 1345 c 1,8,-1
 538 1345 l 1,9,10
 538 1391 538 1391 518 1425 c 0,11,12
 460 1481 460 1481 410 1490 c 1,13,14
 342 1490 342 1490 300.5 1451.5 c 128,-1,15
 259 1413 259 1413 259 1345 c 1,16,-1
 167 1345 l 1,0,1
EndSplineSet
EndChar

StartChar: uni0326
Encoding: 806 806 355
Width: 552
GlyphClass: 2
Flags: HW
LayerCount: 2
Fore
SplineSet
170 -671 m 1,0,-1
 257 -185 l 1,1,-1
 396 -185 l 1,2,-1
 264 -671 l 1,3,-1
 170 -671 l 1,0,-1
EndSplineSet
EndChar

StartChar: quoteleft
Encoding: 8216 8216 356
Width: 541
GlyphClass: 2
Flags: HW
LayerCount: 2
Fore
SplineSet
104 1161 m 1,0,-1
 344 1619 l 1,1,-1
 420 1619 l 1,2,-1
 258 1161 l 1,3,-1
 104 1161 l 1,0,-1
EndSplineSet
EndChar

StartChar: quoteright
Encoding: 8217 8217 357
Width: 532
GlyphClass: 2
Flags: HW
LayerCount: 2
Fore
SplineSet
166 1161 m 1,0,-1
 252 1619 l 1,1,-1
 382 1619 l 1,2,-1
 259 1161 l 1,3,-1
 166 1161 l 1,0,-1
EndSplineSet
EndChar

StartChar: quotesinglbase
Encoding: 8218 8218 358
Width: 480
GlyphClass: 2
Flags: HW
LayerCount: 2
Fore
SplineSet
130 -240 m 1,0,-1
 215 218 l 1,1,-1
 349 218 l 1,2,-1
 227 -240 l 1,3,-1
 130 -240 l 1,0,-1
EndSplineSet
EndChar

StartChar: quotedblleft
Encoding: 8220 8220 359
Width: 854
GlyphClass: 2
Flags: HW
LayerCount: 2
Fore
SplineSet
419 1161 m 1,0,-1
 653 1619 l 1,1,-1
 732 1619 l 1,2,-1
 573 1161 l 1,3,-1
 419 1161 l 1,0,-1
104 1161 m 1,4,-1
 341 1619 l 1,5,-1
 420 1619 l 1,6,-1
 259 1161 l 1,7,-1
 104 1161 l 1,4,-1
EndSplineSet
EndChar

StartChar: quotedblright
Encoding: 8221 8221 360
Width: 723
GlyphClass: 2
Flags: HW
LayerCount: 2
Fore
SplineSet
394 1161 m 1,0,-1
 481 1619 l 1,1,-1
 619 1619 l 1,2,-1
 492 1161 l 1,3,-1
 394 1161 l 1,0,-1
113 1161 m 1,4,-1
 200 1619 l 1,5,-1
 335 1619 l 1,6,-1
 206 1161 l 1,7,-1
 113 1161 l 1,4,-1
EndSplineSet
EndChar

StartChar: quotedblbase
Encoding: 8222 8222 361
Width: 734
GlyphClass: 2
Flags: HW
LayerCount: 2
Fore
SplineSet
409 -240 m 1,0,-1
 487 218 l 1,1,-1
 621 218 l 1,2,-1
 498 -240 l 1,3,-1
 409 -240 l 1,0,-1
111 -240 m 1,4,-1
 192 218 l 1,5,-1
 321 218 l 1,6,-1
 204 -240 l 1,7,-1
 111 -240 l 1,4,-1
EndSplineSet
EndChar

StartChar: dagger
Encoding: 8224 8224 362
Width: 829
GlyphClass: 2
Flags: HW
LayerCount: 2
Fore
SplineSet
362 125 m 1,0,-1
 362 1098 l 1,1,-1
 73 1098 l 1,2,-1
 73 1155 l 1,3,-1
 362 1155 l 1,4,-1
 362 1611 l 1,5,-1
 461 1611 l 1,6,-1
 461 1155 l 1,7,-1
 756 1155 l 1,8,-1
 756 1098 l 1,9,-1
 466 1098 l 1,10,-1
 466 125 l 1,11,-1
 362 125 l 1,0,-1
EndSplineSet
EndChar

StartChar: daggerdbl
Encoding: 8225 8225 363
Width: 929
GlyphClass: 2
Flags: HW
LayerCount: 2
Fore
SplineSet
418 218 m 1,0,-1
 418 534 l 1,1,-1
 98 534 l 1,2,-1
 98 654 l 1,3,-1
 418 654 l 1,4,-1
 418 1125 l 1,5,-1
 104 1125 l 1,6,-1
 104 1249 l 1,7,-1
 418 1249 l 1,8,-1
 418 1615 l 1,9,-1
 516 1615 l 1,10,-1
 516 1249 l 1,11,-1
 837 1249 l 1,12,-1
 837 1125 l 1,13,-1
 516 1125 l 1,14,-1
 516 654 l 1,15,-1
 828 654 l 1,16,-1
 828 534 l 1,17,-1
 516 534 l 1,18,-1
 516 218 l 1,19,-1
 418 218 l 1,0,-1
EndSplineSet
EndChar

StartChar: bullet
Encoding: 8226 8226 364
Width: 808
GlyphClass: 2
Flags: HW
LayerCount: 2
Fore
SplineSet
517 556.5 m 128,-1,1
 466 535 466 535 403.5 535 c 128,-1,2
 341 535 341 535 290 556 c 128,-1,3
 239 577 239 577 208 612 c 0,4,5
 145 683 145 683 145 782 c 0,6,7
 145 907 145 907 239 985 c 0,8,9
 304 1039 304 1039 385.5 1039 c 128,-1,10
 467 1039 467 1039 517.5 1017.5 c 128,-1,11
 568 996 568 996 599 960 c 128,-1,12
 630 924 630 924 646.5 880 c 128,-1,13
 663 836 663 836 663 787.5 c 128,-1,14
 663 739 663 739 646.5 694.5 c 128,-1,15
 630 650 630 650 599 614 c 128,-1,0
 568 578 568 578 517 556.5 c 128,-1,1
EndSplineSet
EndChar

StartChar: guilsinglleft
Encoding: 8249 8249 365
Width: 636
GlyphClass: 2
Flags: HW
LayerCount: 2
Fore
SplineSet
372 187 m 1,0,-1
 150 593 l 1,1,-1
 377 993 l 1,2,-1
 488 993 l 1,3,-1
 270 593 l 1,4,-1
 483 187 l 1,5,-1
 372 187 l 1,0,-1
EndSplineSet
EndChar

StartChar: guilsinglright
Encoding: 8250 8250 366
Width: 632
GlyphClass: 2
Flags: HW
LayerCount: 2
Fore
SplineSet
155 187 m 1,0,-1
 373 595 l 1,1,-1
 161 993 l 1,2,-1
 272 993 l 1,3,-1
 493 595 l 1,4,-1
 267 187 l 1,5,-1
 155 187 l 1,0,-1
EndSplineSet
EndChar

StartChar: fraction
Encoding: 8260 8260 367
Width: 1115
GlyphClass: 2
Flags: HW
LayerCount: 2
Fore
SplineSet
69 0 m 1,0,-1
 934 1597 l 1,1,-1
 1033 1597 l 1,2,-1
 169 0 l 1,3,-1
 69 0 l 1,0,-1
EndSplineSet
EndChar

StartChar: uni2074
Encoding: 8308 8308 368
Width: 705
GlyphClass: 2
Flags: HW
LayerCount: 2
Fore
SplineSet
218 994 m 1,0,-1
 454 994 l 1,1,2
 454 1391 454 1391 456 1433 c 1,3,-1
 218 994 l 1,0,-1
455 684 m 1,4,-1
 455 908 l 1,5,-1
 134 908 l 1,6,-1
 134 992 l 1,7,8
 149 1019 149 1019 285 1276 c 1,9,-1
 441 1567 l 1,10,-1
 541 1567 l 1,11,-1
 541 994 l 1,12,-1
 631 994 l 1,13,-1
 639 908 l 1,14,-1
 539 908 l 1,15,-1
 539 684 l 1,16,-1
 455 684 l 1,4,-1
EndSplineSet
EndChar

StartChar: trademark
Encoding: 8482 8482 369
Width: 1808
GlyphClass: 2
Flags: HW
LayerCount: 2
Fore
SplineSet
361 571 m 1,0,-1
 361 1441 l 1,1,-1
 99 1441 l 1,2,-1
 99 1513 l 1,3,-1
 724 1513 l 1,4,-1
 724 1441 l 1,5,-1
 451 1441 l 1,6,-1
 451 571 l 1,7,-1
 361 571 l 1,0,-1
871 571 m 1,8,-1
 871 1513 l 1,9,-1
 1001 1513 l 1,10,-1
 1292 758 l 1,11,-1
 1597 1513 l 1,12,-1
 1723 1513 l 1,13,-1
 1723 571 l 1,14,-1
 1630 571 l 1,15,-1
 1630 1438 l 1,16,-1
 1324 677 l 1,17,-1
 1246 677 l 1,18,-1
 958 1442 l 1,19,-1
 958 571 l 1,20,-1
 871 571 l 1,8,-1
EndSplineSet
EndChar

StartChar: minus
Encoding: 8722 8722 370
Width: 1212
GlyphClass: 2
Flags: HW
LayerCount: 2
Fore
SplineSet
123 578 m 1,0,-1
 123 701 l 1,1,-1
 1098 701 l 1,2,-1
 1098 578 l 1,3,-1
 123 578 l 1,0,-1
EndSplineSet
EndChar

StartChar: approxequal
Encoding: 8776 8776 371
Width: 1315
GlyphClass: 2
Flags: HW
LayerCount: 2
Fore
SplineSet
137 758 m 1,0,1
 155 910 155 910 231.5 993 c 128,-1,2
 308 1076 308 1076 428 1076 c 0,3,4
 489 1076 489 1076 546 1049.5 c 128,-1,5
 603 1023 603 1023 682.5 968.5 c 128,-1,6
 762 914 762 914 807 892.5 c 128,-1,7
 852 871 852 871 892 871 c 0,8,9
 1019 871 1019 871 1052 1073 c 1,10,-1
 1158 1103 l 1,11,12
 1139 942 1139 942 1079.5 865 c 128,-1,13
 1020 788 1020 788 899 788 c 128,-1,14
 778 788 778 788 637 887.5 c 128,-1,15
 496 987 496 987 424 987 c 0,16,17
 284 987 284 987 246 796 c 1,18,-1
 137 758 l 1,0,1
140 367 m 1,19,20
 159 521 159 521 234 603.5 c 128,-1,21
 309 686 309 686 429 686 c 0,22,23
 510 686 510 686 602 635 c 0,24,25
 649 609 649 609 704.5 572 c 128,-1,26
 760 535 760 535 775 526.5 c 128,-1,27
 790 518 790 518 814 505 c 0,28,29
 859 481 859 481 894 481 c 0,30,31
 1021 481 1021 481 1056 684 c 1,32,-1
 1161 711 l 1,33,34
 1141 548 1141 548 1083.5 471 c 128,-1,35
 1026 394 1026 394 907 394 c 128,-1,36
 788 394 788 394 616 510 c 1,37,38
 498 594 498 594 427 594 c 128,-1,39
 356 594 356 594 312.5 545 c 128,-1,40
 269 496 269 496 246 398 c 1,41,-1
 140 367 l 1,19,20
EndSplineSet
EndChar

StartChar: notequal
Encoding: 8800 8800 372
Width: 1135
GlyphClass: 2
Flags: HW
LayerCount: 2
Fore
SplineSet
337 50 m 1,0,-1
 247 68 l 1,1,-1
 364 378 l 1,2,-1
 106 378 l 1,3,-1
 100 479 l 1,4,-1
 420 479 l 1,5,-1
 586 823 l 1,6,-1
 106 823 l 1,7,-1
 98 930 l 1,8,-1
 636 930 l 1,9,-1
 779 1243 l 1,10,-1
 871 1231 l 1,11,-1
 755 931 l 1,12,-1
 1032 931 l 1,13,-1
 1039 823 l 1,14,-1
 706 823 l 1,15,-1
 535 479 l 1,16,-1
 1034 479 l 1,17,-1
 1039 378 l 1,18,-1
 484 378 l 1,19,-1
 337 50 l 1,0,-1
EndSplineSet
EndChar

StartChar: lessequal
Encoding: 8804 8804 373
Width: 1164
GlyphClass: 2
Flags: HW
LayerCount: 2
Fore
SplineSet
84 12 m 1,0,-1
 84 131 l 1,1,-1
 1056 130 l 1,2,-1
 1056 12 l 1,3,-1
 84 12 l 1,0,-1
1022 237 m 1,4,-1
 124 736 l 1,5,-1
 124 809 l 1,6,-1
 1022 1338 l 1,7,-1
 1022 1214 l 1,8,-1
 239 780 l 1,9,-1
 1022 362 l 1,10,-1
 1022 237 l 1,4,-1
EndSplineSet
EndChar

StartChar: greaterequal
Encoding: 8805 8805 374
Width: 1164
GlyphClass: 2
Flags: HW
LayerCount: 2
Fore
SplineSet
109 12 m 1,0,-1
 109 130 l 1,1,-1
 1073 131 l 1,2,-1
 1073 12 l 1,3,-1
 109 12 l 1,0,-1
144 240 m 1,4,-1
 144 365 l 1,5,-1
 935 774 l 1,6,-1
 149 1217 l 1,7,-1
 149 1341 l 1,8,-1
 1051 809 l 1,9,-1
 1051 741 l 1,10,-1
 144 240 l 1,4,-1
EndSplineSet
EndChar

StartChar: lozenge
Encoding: 9674 9674 375
Width: 1103
GlyphClass: 2
Flags: HW
LayerCount: 2
Fore
SplineSet
557 1502 m 1,0,-1
 184 793 l 1,1,2
 224 714 224 714 348.5 462.5 c 128,-1,3
 473 211 473 211 544 77 c 1,4,5
 642 263 642 263 916 791 c 1,6,7
 902 819 902 819 764.5 1089 c 128,-1,8
 627 1359 627 1359 557 1502 c 1,0,-1
496 -49 m 1,9,-1
 82 791 l 1,10,-1
 503 1635 l 1,11,-1
 605 1635 l 1,12,-1
 1019 794 l 1,13,-1
 596 -49 l 1,14,-1
 496 -49 l 1,9,-1
EndSplineSet
EndChar

StartChar: uniFB01
Encoding: 64257 64257 376
Width: 1044
GlyphClass: 3
Flags: HW
LayerCount: 2
Fore
SplineSet
778 1324 m 1,0,-1
 778 1505 l 1,1,-1
 907 1505 l 1,2,-1
 907 1324 l 1,3,-1
 778 1324 l 1,0,-1
180 0 m 1,4,-1
 180 1005 l 1,5,-1
 24 1005 l 1,6,-1
 24 1098 l 1,7,-1
 180 1098 l 1,8,9
 180 1308 180 1308 224 1398 c 0,10,11
 266 1483 266 1483 336 1507 c 0,12,13
 405 1531 405 1531 521 1531 c 2,14,-1
 597 1531 l 1,15,-1
 616 1444 l 1,16,-1
 511 1444 l 2,17,18
 374 1444 374 1444 340 1372 c 0,19,20
 313 1317 313 1317 311 1242 c 128,-1,21
 309 1167 309 1167 309 1115 c 2,22,-1
 309 1107 l 1,23,-1
 308 1098 l 1,24,-1
 907 1098 l 1,25,-1
 907 0 l 1,26,-1
 778 0 l 1,27,-1
 778 1005 l 1,28,-1
 308 1005 l 1,29,-1
 308 0 l 1,30,-1
 180 0 l 1,4,-1
EndSplineSet
Ligature2: "'liga' Standard Ligatures lookup 0 subtable" f i
EndChar

StartChar: uniFB02
Encoding: 64258 64258 377
Width: 1165
GlyphClass: 3
Flags: HW
LayerCount: 2
Fore
SplineSet
1029 -12 m 1,0,1
 923 -12 923 -12 889 8.5 c 128,-1,2
 855 29 855 29 837.5 42 c 128,-1,3
 820 55 820 55 807.5 93.5 c 128,-1,4
 795 132 795 132 788.5 158.5 c 128,-1,5
 782 185 782 185 779 251 c 0,6,7
 775 339 775 339 775 502 c 2,8,-1
 775 1402 l 1,9,10
 633 1412 633 1412 568 1412 c 0,11,12
 510 1412 510 1412 514 1404 c 1,13,14
 408 1404 408 1404 361.5 1341.5 c 128,-1,15
 315 1279 315 1279 309 1115 c 1,16,-1
 309 1107 l 1,17,-1
 308 1098 l 1,18,-1
 563 1098 l 1,19,-1
 563 1005 l 1,20,-1
 308 1005 l 1,21,-1
 308 0 l 1,22,-1
 180 0 l 1,23,-1
 180 1005 l 1,24,-1
 24 1005 l 1,25,-1
 24 1098 l 1,26,-1
 180 1098 l 1,27,-1
 180 1117 l 1,28,29
 188 1348 188 1348 284 1426 c 0,30,31
 368 1494 368 1494 523 1494 c 1,32,33
 483 1494 483 1494 483 1499 c 128,-1,34
 483 1504 483 1504 533 1504 c 0,35,36
 628 1504 628 1504 904 1486 c 1,37,-1
 904 447 l 2,38,39
 904 210 904 210 918 180.5 c 0,40,41
 932 150 932 150 949 128 c 0,42,43
 976 93 976 93 1057 93 c 0,44,45
 1087 93 1087 93 1134 97 c 1,46,-1
 1145 1 l 1,47,48
 1126 -1 1126 -1 1029 -12 c 1,0,1
EndSplineSet
Ligature2: "'liga' Standard Ligatures lookup 0 subtable" f l
EndChar

StartChar: ff
Encoding: 64256 64256 378
Width: 1171
GlyphClass: 3
Flags: HW
LayerCount: 2
Fore
SplineSet
1200 1452 m 1,0,1
 1134 1463 1134 1463 1070 1463 c 0,2,3
 956 1463 956 1463 914.5 1389.5 c 128,-1,4
 873 1316 873 1316 873 1131 c 2,5,-1
 873 1096 l 1,6,-1
 1140 1096 l 1,7,-1
 1140 1005 l 1,8,-1
 873 1005 l 1,9,-1
 873 0 l 1,10,-1
 749 0 l 1,11,-1
 749 1005 l 1,12,-1
 340 1005 l 1,13,-1
 340 0 l 1,14,-1
 216 0 l 1,15,-1
 216 1005 l 1,16,-1
 36 1005 l 1,17,-1
 44 1082 l 1,18,-1
 216 1096 l 1,19,-1
 216 1137 l 2,20,21
 216 1422 216 1422 352 1507 c 0,22,23
 419 1549 419 1549 523 1549 c 2,24,-1
 542 1549 l 2,25,26
 570 1549 570 1549 586.5 1546.5 c 128,-1,27
 603 1544 603 1544 615.5 1542.5 c 128,-1,28
 628 1541 628 1541 634 1540 c 128,-1,29
 640 1539 640 1539 655 1537 c 128,-1,30
 670 1535 670 1535 676 1534 c 1,31,-1
 667 1452 l 1,32,33
 571 1463 571 1463 537 1463 c 0,34,35
 423 1463 423 1463 381.5 1389.5 c 128,-1,36
 340 1316 340 1316 340 1131 c 2,37,-1
 340 1096 l 1,38,-1
 749 1096 l 1,39,-1
 749 1137 l 2,40,41
 749 1353 749 1353 824.5 1451 c 128,-1,42
 900 1549 900 1549 1056 1549 c 0,43,44
 1101 1549 1101 1549 1209 1534 c 1,45,-1
 1200 1452 l 1,0,1
EndSplineSet
Ligature2: "'liga' Standard Ligatures lookup 0 subtable" f f
EndChar

StartChar: fj
Encoding: 65539 -1 379
Width: 1033
GlyphClass: 3
Flags: HW
LayerCount: 2
Fore
SplineSet
751 1298 m 1,0,-1
 751 1496 l 1,1,-1
 919 1496 l 1,2,-1
 919 1298 l 1,3,-1
 751 1298 l 1,0,-1
534 -502 m 1,4,-1
 512 -351 l 1,5,-1
 564 -351 l 2,6,7
 682 -351 682 -351 714 -312 c 0,8,9
 741 -279 741 -279 745 -244 c 0,10,11
 751 -192 751 -192 751 -121 c 2,12,-1
 751 980 l 1,13,-1
 348 980 l 1,14,-1
 348 0 l 1,15,-1
 180 0 l 1,16,-1
 180 980 l 1,17,-1
 20 980 l 1,18,-1
 20 1098 l 1,19,-1
 180 1098 l 1,20,21
 180 1304 180 1304 227 1404 c 0,22,23
 272 1498 272 1498 396 1524 c 0,24,25
 454 1536 454 1536 538 1536 c 2,26,-1
 611 1536 l 1,27,-1
 631 1408 l 1,28,-1
 537 1408 l 2,29,30
 438 1408 438 1408 406 1379 c 0,31,32
 374 1351 374 1351 367 1326 c 128,-1,33
 360 1301 360 1301 356.5 1282.5 c 128,-1,34
 353 1264 353 1264 351 1230 c 0,35,36
 348 1180 348 1180 348 1098 c 1,37,-1
 919 1098 l 1,38,-1
 919 -139 l 2,39,40
 919 -245 919 -245 905.5 -310 c 128,-1,41
 892 -375 892 -375 854.5 -420.5 c 128,-1,42
 817 -466 817 -466 753 -484 c 128,-1,43
 689 -502 689 -502 586 -502 c 2,44,-1
 534 -502 l 1,4,-1
EndSplineSet
Ligature2: "'liga' Standard Ligatures lookup 0 subtable" f j
EndChar

StartChar: commaaccentcomb
Encoding: 65541 -1 381
Width: 554
GlyphClass: 2
Flags: HW
LayerCount: 2
Fore
SplineSet
164 -648 m 1,0,-1
 263 -145 l 1,1,-1
 404 -145 l 1,2,-1
 241 -648 l 1,3,-1
 164 -648 l 1,0,-1
EndSplineSet
EndChar

StartChar: middot
Encoding: 65542 -1 382
Width: 468
GlyphClass: 2
Flags: HW
LayerCount: 2
Fore
SplineSet
150 561 m 1,0,-1
 150 759 l 1,1,-1
 318 759 l 1,2,-1
 318 561 l 1,3,-1
 150 561 l 1,0,-1
EndSplineSet
EndChar

